<svg width="150" height="150" viewBox="0 0 150 150" fill="none" xmlns="http://www.w3.org/2000/svg">
<path d="M135.352 7.91016H14.6484C6.57129 7.91016 0 14.4814 0 22.5586V127.441C0 135.519 6.57129 142.09 14.6484 142.09H135.352C143.429 142.09 150 135.519 150 127.441V22.5586C150 14.4814 143.429 7.91016 135.352 7.91016ZM144.141 127.441C144.141 132.288 140.198 136.23 135.352 136.23H14.6484C9.80215 136.23 5.85938 132.288 5.85938 127.441V22.5586C5.85938 17.7123 9.80215 13.7695 14.6484 13.7695H135.352C140.198 13.7695 144.141 17.7123 144.141 22.5586V127.441Z" fill="white"/>
<path d="M100.781 111.035C95.6118 111.035 91.4062 115.241 91.4062 120.41C91.4062 125.58 95.6118 129.785 100.781 129.785C105.951 129.785 110.156 125.58 110.156 120.41C110.156 115.241 105.951 111.035 100.781 111.035ZM100.781 123.926C98.8427 123.926 97.2656 122.349 97.2656 120.41C97.2656 118.472 98.8427 116.895 100.781 116.895C102.72 116.895 104.297 118.472 104.297 120.41C104.297 122.349 102.72 123.926 100.781 123.926Z" fill="white"/>
<path d="M126.562 111.035C121.393 111.035 117.188 115.241 117.188 120.41C117.188 125.58 121.393 129.785 126.562 129.785C131.732 129.785 135.938 125.58 135.938 120.41C135.938 115.241 131.732 111.035 126.562 111.035ZM126.562 123.926C124.624 123.926 123.047 122.349 123.047 120.41C123.047 118.472 124.624 116.895 126.562 116.895C128.501 116.895 130.078 118.472 130.078 120.41C130.078 122.349 128.501 123.926 126.562 123.926Z" fill="white"/>
<path d="M33.6853 117.48H16.9922C15.3741 117.48 14.0625 118.792 14.0625 120.41C14.0625 122.028 15.3741 123.34 16.9922 123.34H33.6853C35.3033 123.34 36.6149 122.028 36.6149 120.41C36.6149 118.792 35.3033 117.48 33.6853 117.48Z" fill="white"/>
<path d="M70.4101 117.48H53.717C52.0989 117.48 50.7873 118.792 50.7873 120.41C50.7873 122.028 52.0989 123.34 53.717 123.34H70.4101C72.0281 123.34 73.3397 122.028 73.3397 120.41C73.3397 118.792 72.0281 117.48 70.4101 117.48Z" fill="white"/>
<path d="M133.008 21.9727H88.1836C86.5658 21.9727 85.2539 23.2843 85.2539 24.9023C85.2539 26.5204 86.5658 27.832 88.1836 27.832H130.078V67.043H122.691C121.526 67.043 120.472 67.7335 120.006 68.8017L117.39 74.8008L112.095 58.4429C111.742 57.351 110.784 56.5661 109.644 56.4346C108.502 56.3022 107.392 56.8491 106.799 57.832L100.766 67.8357H93.7529C92.5749 67.8357 91.5114 68.5415 91.0535 69.627L87.3984 78.2938L78.1535 38.1211C77.8544 36.8206 76.7139 35.8866 75.3797 35.8497C74.0575 35.8207 72.8552 36.682 72.4843 37.9641L63.6642 68.451H53.5638C52.2401 68.451 51.0809 69.3384 50.7355 70.6163L49.1531 76.4707L40.7563 51.5801C40.3714 50.439 39.3278 49.65 38.1252 49.5902C36.9185 49.5284 35.8058 50.2131 35.3104 51.3105L27.477 68.6561H19.9219V27.832H61.8164C63.4345 27.832 64.7461 26.5204 64.7461 24.9023C64.7461 23.2843 63.4345 21.9727 61.8164 21.9727H16.9922C15.3741 21.9727 14.0625 23.2843 14.0625 24.9023V101.66C14.0625 103.278 15.3741 104.59 16.9922 104.59H133.008C134.626 104.59 135.938 103.278 135.938 101.66V24.9023C135.938 23.2843 134.626 21.9727 133.008 21.9727ZM19.9219 98.7305V74.5154H29.3689C30.5203 74.5154 31.565 73.841 32.0391 72.7916L37.5855 60.5101L46.6875 87.4907C47.1 88.7133 48.2546 89.5269 49.5536 89.4826C50.8433 89.4431 51.9551 88.5645 52.292 87.3187L55.8076 74.3106H65.8673C67.1719 74.3106 68.3191 73.4481 68.6815 72.1951L74.9763 50.4375L83.722 88.4414C84.007 89.6801 85.0582 90.5936 86.3241 90.7031C86.4094 90.7104 86.4937 90.714 86.5781 90.714C87.7471 90.714 88.8161 90.0149 89.2764 88.9228L95.6977 73.6951H102.42C103.447 73.6951 104.399 73.1578 104.929 72.2786L108.5 66.3592L114.197 83.9631C114.572 85.1218 115.625 85.9274 116.84 85.9872C118.063 86.0484 119.183 85.3482 119.67 84.232L124.61 72.9026H130.078V98.7305H19.9219Z" fill="white"/>
<path d="M75 27.832C75.7705 27.832 76.5264 27.5186 77.071 26.9736C77.6162 26.4287 77.9297 25.6729 77.9297 24.9023C77.9297 24.1318 77.6162 23.376 77.071 22.8311C76.5264 22.2861 75.7705 21.9727 75 21.9727C74.2295 21.9727 73.4736 22.2861 72.9287 22.8311C72.3838 23.376 72.0703 24.1318 72.0703 24.9023C72.0703 25.6729 72.3838 26.4287 72.9287 26.9736C73.4736 27.5186 74.2295 27.832 75 27.832Z" fill="white"/>
</svg>
