<svg width="150" height="150" viewBox="0 0 150 150" fill="none" xmlns="http://www.w3.org/2000/svg">
<path d="M70.028 112.784C70.6809 113.437 71.4561 113.955 72.3092 114.308C73.1623 114.662 74.0766 114.844 75 114.844C75.9234 114.844 76.8377 114.662 77.6908 114.308C78.5439 113.955 79.3191 113.437 79.972 112.784L106.488 86.2679C107.807 84.9492 108.548 83.1608 108.548 81.296C108.548 79.4312 107.807 77.6428 106.488 76.3242C105.17 75.0056 103.381 74.2648 101.516 74.2648C99.6517 74.2648 97.8632 75.0056 96.5446 76.3242L82.0313 90.8376V14.0625C82.0313 12.1977 81.2905 10.4093 79.9718 9.09065C78.6532 7.77204 76.8648 7.03125 75 7.03125C73.1352 7.03125 71.3468 7.77204 70.0282 9.09065C68.7095 10.4093 67.9688 12.1977 67.9688 14.0625V90.8376L53.4554 76.3242C52.1368 75.0056 50.3483 74.2648 48.4835 74.2648C46.6187 74.2648 44.8303 75.0056 43.5117 76.3242C42.1931 77.6428 41.4523 79.4312 41.4523 81.296C41.4523 83.1608 42.1931 84.9492 43.5117 86.2679L70.028 112.784Z" fill="#FFFDFD"/>
<path d="M135.938 67.9688C134.073 67.9688 132.284 68.7095 130.966 70.0282C129.647 71.3468 128.906 73.1352 128.906 75V128.906H21.0938V75C21.0938 73.1352 20.353 71.3468 19.0343 70.0282C17.7157 68.7095 15.9273 67.9688 14.0625 67.9688C12.1977 67.9688 10.4093 68.7095 9.09066 70.0282C7.77204 71.3468 7.03125 73.1352 7.03125 75V131.25C7.03125 134.358 8.2659 137.339 10.4636 139.536C12.6613 141.734 15.642 142.969 18.75 142.969H131.25C134.358 142.969 137.339 141.734 139.536 139.536C141.734 137.339 142.969 134.358 142.969 131.25V75C142.969 73.1352 142.228 71.3468 140.909 70.0282C139.591 68.7095 137.802 67.9688 135.938 67.9688Z" fill="#FFFDFD"/>
</svg>
