<svg width="150" height="150" viewBox="0 0 150 150" fill="none" xmlns="http://www.w3.org/2000/svg">
<path d="M120.41 77.0104V62.9883C120.41 42.5326 106.813 25.195 88.1836 19.5322V13.1836C88.1836 5.91416 82.2694 0 75 0C67.7305 0 61.8164 5.91416 61.8164 13.1836V19.5322C43.1865 25.195 29.5898 42.5323 29.5898 62.9883V77.0104C29.5898 94.9787 22.7408 112.017 10.3046 124.986C9.08582 126.257 8.74334 128.132 9.43416 129.751C10.125 131.371 11.7158 132.422 13.4765 132.422H53.4694C55.5108 142.439 64.3889 150 75 150C85.6113 150 94.4888 142.439 96.5305 132.422H136.523C138.284 132.422 139.875 131.371 140.566 129.751C141.256 128.132 140.914 126.257 139.695 124.986C127.259 112.017 120.41 94.9784 120.41 77.0104ZM70.6054 13.1836C70.6054 10.7604 72.5768 8.78906 75 8.78906C77.4231 8.78906 79.3945 10.7604 79.3945 13.1836V17.7914C77.9481 17.652 76.4824 17.5781 75 17.5781C73.5176 17.5781 72.0518 17.652 70.6054 17.7914V13.1836ZM75 141.211C69.271 141.211 64.3863 137.537 62.5722 132.422H87.4277C85.6136 137.537 80.729 141.211 75 141.211ZM22.9482 123.633C32.9563 110.217 38.3789 93.982 38.3789 77.0104V62.9883C38.3789 42.7954 54.8071 26.3672 75 26.3672C95.1928 26.3672 111.621 42.7954 111.621 62.9883V77.0104C111.621 93.982 117.044 110.217 127.052 123.633H22.9482Z" fill="white"/>
<path d="M132.129 62.9883C132.129 65.4152 134.096 67.3828 136.523 67.3828C138.95 67.3828 140.918 65.4152 140.918 62.9883C140.918 45.3809 134.061 28.8272 121.611 16.377C119.895 14.661 117.112 14.6607 115.396 16.377C113.68 18.0932 113.68 20.8755 115.396 22.5917C126.187 33.382 132.129 47.7284 132.129 62.9883Z" fill="white"/>
<path d="M13.4771 67.3828C15.904 67.3828 17.8716 65.4152 17.8716 62.9883C17.8716 47.7287 23.8142 33.3823 34.6042 22.592C36.3204 20.8758 36.3204 18.0935 34.6042 16.3772C32.8883 14.661 30.1057 14.661 28.3895 16.3772C15.9392 28.8275 9.08252 45.3809 9.08252 62.9883C9.08252 65.4152 11.0501 67.3828 13.4771 67.3828Z" fill="white"/>
</svg>
