<svg width="600" height="426" viewBox="0 0 600 426" fill="none" xmlns="http://www.w3.org/2000/svg">
<g clip-path="url(#clip0)">
<path opacity="0.1" d="M199.475 424.763C228.695 424.763 252.382 420.958 252.382 416.265C252.382 411.572 228.695 407.768 199.475 407.768C170.256 407.768 146.568 411.572 146.568 416.265C146.568 420.958 170.256 424.763 199.475 424.763Z" fill="#6C63FF"/>
<path opacity="0.1" d="M487.068 425.002C523.53 425.002 553.088 421.197 553.088 416.504C553.088 411.811 523.53 408.007 487.068 408.007C450.607 408.007 421.049 411.811 421.049 416.504C421.049 421.197 450.607 425.002 487.068 425.002Z" fill="#6C63FF"/>
<path opacity="0.1" d="M7.51463 183.631H62.6203V258.74H11.5489C11.4131 259.511 11.2828 260.287 11.1416 261.064H62.6203V321.637C62.528 321.61 62.4466 321.578 62.3597 321.545C60.9045 320.969 59.4603 320.361 58.016 319.71L57.0929 319.292C55.645 318.607 54.1971 317.884 52.7492 317.12C52.2442 316.854 51.7393 316.577 51.2397 316.294C43.2016 311.792 35.8993 306.086 29.5862 299.376C29.4016 299.196 29.2279 299.006 29.0433 298.833C28.1637 297.877 27.3003 296.911 26.4642 295.922L25.5411 294.836C24.5529 293.626 23.5973 292.382 22.6688 291.122C22.5331 290.938 22.4028 290.753 22.2616 290.58C18.4855 285.344 15.3502 279.675 12.9226 273.693C12.8466 273.514 12.7814 273.319 12.7108 273.15C11.9651 271.232 11.3045 269.295 10.729 267.341C10.4792 266.521 10.2403 265.712 10.034 264.859C9.95798 264.609 9.89282 264.365 9.83309 264.121C6.74904 252.083 6.38525 239.579 6.38525 227.161C6.38525 225.711 6.38525 224.256 6.38525 222.817C6.38525 217.795 6.44498 212.74 6.53186 207.69C6.53186 206.382 6.58615 205.079 6.6133 203.765C6.68931 200.431 6.79791 197.097 6.93908 193.763C6.97166 192.835 7.0151 191.912 7.06396 190.989C7.06396 190.456 7.09111 189.924 7.14541 189.392C7.27572 187.459 7.38431 185.543 7.51463 183.631Z" fill="#6C63FF"/>
<path opacity="0.1" d="M62.6204 100.004H32.3934C37.307 92.3129 42.6756 84.9226 48.4707 77.8723C52.961 72.3558 57.7011 66.9804 62.6204 61.8005V100.004Z" fill="#6C63FF"/>
<path opacity="0.1" d="M62.6203 102.328V181.307H7.68835C7.68835 181.079 7.72636 180.846 7.74265 180.618C7.79152 179.993 7.84038 179.369 7.89468 178.75C7.95441 178.023 8.01956 177.289 8.09015 176.578C8.16073 175.867 8.23675 174.998 8.3182 174.211C8.39964 173.424 8.47566 172.625 8.56796 171.838C8.66026 171.051 8.74171 170.264 8.83944 169.482C8.93718 168.7 9.02405 167.907 9.12722 167.125C9.20866 166.474 9.29553 165.827 9.38241 165.176C9.50729 164.258 9.6376 163.335 9.77878 162.423C9.77878 162.287 9.81678 162.146 9.8385 162.016C10.8295 155.338 12.1798 148.719 13.8836 142.187C15.667 135.334 17.9444 128.62 20.6978 122.097C23.6242 115.273 27.0506 108.674 30.9491 102.355L62.6203 102.328Z" fill="#6C63FF"/>
<path opacity="0.1" d="M75.7765 183.626V258.74H193.475V183.626H75.7765ZM75.7765 261.058V325.563C76.4498 325.704 77.1176 325.84 77.78 325.954C78.6814 326.128 79.5773 326.285 80.4949 326.421C80.6686 326.448 80.8478 326.475 81.0378 326.491C81.3962 326.551 81.7654 326.6 82.1238 326.649C83.0305 326.774 83.9319 326.877 84.8386 326.958C85.2675 327.002 85.7019 327.04 86.1363 327.072L87.1842 327.154C87.7543 327.197 88.319 327.23 88.8783 327.246C89.2258 327.246 89.5733 327.279 89.9316 327.289C90.2031 327.289 90.4746 327.289 90.7569 327.289C91.0393 327.289 91.4411 327.289 91.7831 327.289C92.2501 327.289 92.7171 327.289 93.1786 327.289H93.803C94.2699 327.289 94.7369 327.29 95.1984 327.246H95.231C95.5513 327.246 95.8771 327.246 96.2029 327.203C96.2933 327.208 96.384 327.208 96.4744 327.203C96.7459 327.203 97.0173 327.203 97.278 327.165H97.468L99.2869 327.023C99.8842 326.969 100.487 326.899 101.095 326.833L102.333 326.687C107.369 325.981 112.35 324.922 117.237 323.516C128.216 320.454 138.956 316.17 149.929 313.031C164.117 308.986 179.793 306.999 193.503 311.945V261.058H75.7765ZM193.475 100.004V0.00542729C180.589 -0.134182 167.738 1.37299 155.234 4.49033C125.431 11.9778 98.6897 28.218 75.7765 48.9593V99.9982H81.684V102.317H75.7765V181.307H193.475V102.322H105.938V100.004H193.475ZM344.654 66.2257C337.28 65.965 329.95 63.6303 323.32 60.025C310.642 53.1293 300.516 42.4817 289.2 33.4956C265.69 14.7796 236.533 3.48584 206.621 0.684136V100.004H374.642L375.06 99.5638L344.654 66.2257ZM359.96 63.5108L376.189 81.3201V58.8413C370.754 59.5146 365.992 61.1163 359.982 63.4891L359.96 63.5108ZM376.189 341.58V261.058H341.608C341.515 260.716 341.423 260.369 341.314 260.021C341.418 260.369 341.504 260.716 341.602 261.058H206.642V319.292C207.924 320.242 209.189 321.241 210.443 322.256C211.795 323.342 213.131 324.488 214.472 325.612L215.824 326.73C216.47 327.273 217.122 327.816 217.779 328.327C219.082 329.384 220.397 330.426 221.726 331.454C222.383 331.997 223.056 332.486 223.724 332.996C234.327 341.102 245.511 348.418 257.187 354.883C259.804 356.331 262.445 357.745 265.109 359.124C266.884 360.03 268.671 360.932 270.463 361.806C273.156 363.12 275.871 364.387 278.607 365.607C303.837 376.932 330.515 384.704 357.88 388.699C363.958 389.597 370.059 390.303 376.184 390.817V341.575H376.727L376.189 341.58ZM206.642 102.322V181.307H376.211V102.322H206.642ZM206.642 183.626V258.74H376.211V183.626H206.642ZM389.372 58.7436V83.8178L410.087 61.0892C403.223 59.9815 396.319 59.1906 389.372 58.7164V58.7436ZM389.372 183.653V258.74H554.298V183.626L389.372 183.653ZM553.696 347.542L554.277 261.058H389.372V391.68C399.996 392.126 410.635 391.999 421.245 391.3H421.429C426.497 390.981 431.541 390.518 436.562 389.91H436.676C463.46 386.793 489.651 379.804 514.428 369.163L553.696 347.542ZM586.1 195.995C585.481 194.534 584.835 193.084 584.178 191.651C582.951 188.936 581.653 186.297 580.317 183.659H567.449V258.74H599.984C599.967 237.477 594.587 215.759 586.116 195.968L586.1 195.995ZM567.449 261.086V335.472C576.614 326.687 584.357 316.637 589.933 305.147C596.639 291.313 599.707 276.332 599.957 261.075L567.449 261.086ZM567.449 161.766V181.313H579.112C575.584 174.584 571.696 168.05 567.465 161.739L567.449 161.766ZM455.598 73.4797C454.74 73.1539 453.882 72.8227 453.019 72.5024C443.914 69.1399 434.61 66.3437 425.159 64.1298L393.461 98.9177L392.853 99.5638L393.26 100.009H506.078C490.365 89.1934 473.426 80.279 455.614 73.4525L455.598 73.4797ZM509.384 102.349H391.685L389.372 104.467V181.307H409.647H409.679H554.32V144.087C541.236 128.263 526.134 114.222 509.401 102.322L509.384 102.349Z" fill="#6C63FF"/>
<path opacity="0.1" d="M62.6203 142.165V181.307H7.68835C7.68835 181.079 7.72636 180.846 7.74265 180.618C7.79152 179.993 7.84038 179.369 7.89468 178.75C7.95441 178.023 8.01956 177.29 8.09015 176.578C8.16073 175.867 8.23675 174.998 8.3182 174.211C8.39964 173.424 8.47566 172.625 8.56796 171.838C8.66026 171.051 8.74171 170.264 8.83944 169.482C8.93718 168.7 9.02405 167.907 9.12722 167.125C9.20866 166.474 9.29553 165.827 9.38241 165.176C9.50729 164.258 9.6376 163.335 9.77878 162.423C9.77878 162.287 9.81678 162.146 9.8385 162.016C10.8295 155.338 12.1798 148.719 13.8836 142.187L62.6203 142.165Z" fill="#6C63FF"/>
<path opacity="0.1" d="M7.51463 183.631H62.6203V258.74H11.5489C11.4131 259.511 11.2828 260.287 11.1416 261.064H62.6203V321.637C62.528 321.61 62.4466 321.578 62.3597 321.545C60.9045 320.969 59.4603 320.361 58.016 319.71L57.0929 319.292C55.645 318.607 54.1971 317.884 52.7492 317.12C52.2442 316.854 51.7393 316.577 51.2397 316.294C43.2016 311.792 35.8993 306.086 29.5862 299.376C29.4016 299.196 29.2279 299.006 29.0433 298.833C28.1637 297.877 27.3003 296.911 26.4642 295.922L25.5411 294.836C24.5529 293.626 23.5973 292.382 22.6688 291.122C22.5331 290.938 22.4028 290.753 22.2616 290.58C18.4855 285.344 15.3502 279.675 12.9226 273.693C12.8466 273.514 12.7814 273.319 12.7108 273.15C11.9651 271.232 11.3045 269.295 10.729 267.341C10.4792 266.521 10.2403 265.712 10.034 264.859C9.95798 264.609 9.89282 264.365 9.83309 264.121C6.74904 252.083 6.38525 239.579 6.38525 227.161C6.38525 225.711 6.38525 224.256 6.38525 222.817C6.38525 217.795 6.44498 212.74 6.53186 207.69C6.53186 206.382 6.58615 205.079 6.6133 203.765C6.68931 200.431 6.79791 197.097 6.93908 193.763C6.97166 192.835 7.0151 191.912 7.06396 190.989C7.06396 190.456 7.09111 189.924 7.14541 189.392C7.27572 187.459 7.38431 185.543 7.51463 183.631Z" fill="#6C63FF"/>
<path opacity="0.1" d="M117.21 113.632V181.307H75.7765V113.632H81.684V90.7189H105.933V113.632H117.21Z" fill="#6C63FF"/>
<path opacity="0.1" d="M117.21 183.626H75.7819V258.735H117.21V183.626Z" fill="#6C63FF"/>
<path opacity="0.1" d="M75.7765 261.064H117.21V323.505C112.323 324.909 107.342 325.967 102.306 326.671L101.068 326.823C100.46 326.893 99.8571 326.953 99.2598 327.013C98.6625 327.072 98.0435 327.116 97.4409 327.154H97.2508C96.9902 327.154 96.7079 327.186 96.4527 327.192H96.1757C95.85 327.192 95.5242 327.224 95.1984 327.235C94.7369 327.262 94.2754 327.268 93.803 327.273C93.6021 327.273 93.412 327.273 93.2111 327.273C92.7442 327.273 92.2827 327.273 91.8157 327.273H90.7895C90.5126 327.273 90.2465 327.273 89.9588 327.273L88.9109 327.235C88.3679 327.235 87.7815 327.175 87.2168 327.137L86.1743 327.061L84.8766 326.942C83.9644 326.861 83.0577 326.757 82.1618 326.633L81.0758 326.48L80.5329 326.404C79.6261 326.263 78.7302 326.111 77.818 325.938C77.1502 325.823 76.4878 325.682 75.8145 325.547L75.7765 261.064Z" fill="#6C63FF"/>
<path opacity="0.1" d="M376.211 105.64H342.047V181.302H376.211V105.64Z" fill="#6C63FF"/>
<path opacity="0.1" d="M376.216 183.626V258.74H206.642V226.341H296.965V245.454H342.047V183.626H376.216Z" fill="#6C63FF"/>
<path opacity="0.1" d="M376.754 341.597H376.211V390.871C370.093 390.353 363.994 389.649 357.913 388.759C330.534 384.75 303.845 376.962 278.607 365.618C271.321 362.338 264.182 358.758 257.193 354.878C245.517 348.409 234.331 341.094 223.724 332.991C221.06 330.949 218.43 328.86 215.835 326.725C214.038 325.243 212.251 323.722 210.443 322.245C209.189 321.23 207.924 320.231 206.642 319.275V261.064H341.597C341.504 260.716 341.412 260.369 341.314 260.027C341.418 260.369 341.515 260.716 341.608 261.064H376.211V341.564C376.395 341.57 376.575 341.586 376.754 341.597Z" fill="#6C63FF"/>
<path opacity="0.1" d="M465.312 100.004H443.05V93.0862H453.03V72.4806C453.895 72.7955 454.756 73.1195 455.614 73.4525V93.0862H465.312V100.004Z" fill="#6C63FF"/>
<path opacity="0.1" d="M518.946 181.307H409.658C409.658 181.307 409.658 181.307 409.696 181.335L409.647 181.307H389.372V105.645H395.117V161.571H421.369V128.45H443.055V102.328H465.317V128.471H487.003V161.592H518.946V181.307Z" fill="#6C63FF"/>
<path opacity="0.1" d="M389.372 183.626V258.74H518.946V183.626H389.372ZM554.119 347.157L554.298 287.702H518.946V261.096H389.372V391.68C399.995 392.126 410.635 391.999 421.244 391.3H421.429C426.497 390.981 431.541 390.518 436.562 389.91H436.676C463.46 386.793 489.651 379.804 514.428 369.163" fill="#6C63FF"/>
<path opacity="0.1" d="M569.751 261.064H599.978C599.712 276.316 596.65 291.296 589.95 305.131C584.373 316.626 576.625 326.676 567.471 335.456V287.675H569.751V261.064Z" fill="#6C63FF"/>
<path opacity="0.1" d="M599.995 258.74H569.751V195.968H586.116C594.587 215.759 599.967 237.477 599.995 258.74Z" fill="#6C63FF"/>
<path opacity="0.1" d="M376.216 126.674H357.913V150.396H376.216V126.674Z" fill="#6C63FF"/>
<path opacity="0.1" d="M376.216 175.845H357.913V181.307H376.216V175.845Z" fill="#6C63FF"/>
<path opacity="0.1" d="M376.216 183.626H357.913V199.562H376.216V183.626Z" fill="#6C63FF"/>
<path opacity="0.1" d="M376.216 225.016H357.913V248.738H376.216V225.016Z" fill="#6C63FF"/>
<path opacity="0.1" d="M376.216 274.187H357.913V297.91H376.216V274.187Z" fill="#6C63FF"/>
<path opacity="0.1" d="M376.211 341.564C376.395 341.564 376.575 341.564 376.754 341.597H376.211V347.108H357.913V323.358H376.211V341.564Z" fill="#6C63FF"/>
<path opacity="0.1" d="M376.211 372.519V390.844C370.093 390.326 363.994 389.622 357.913 388.732V372.519H376.211Z" fill="#6C63FF"/>
<path opacity="0.1" d="M285.085 256.997H206.642V258.74H285.085V256.997Z" fill="#6C63FF"/>
<path opacity="0.1" d="M285.085 261.058H206.642V267.737H285.085V261.058Z" fill="#6C63FF"/>
<path opacity="0.1" d="M285.085 289.629H206.642V300.369H285.085V289.629Z" fill="#6C63FF"/>
<path opacity="0.1" d="M285.079 322.262V333.001H223.724C221.06 330.967 218.428 328.879 215.829 326.736C214.032 325.253 212.251 323.733 210.438 322.262H285.079Z" fill="#6C63FF"/>
<path opacity="0.1" d="M285.079 354.889V365.618H278.602C271.322 362.334 264.186 358.753 257.193 354.872L285.079 354.889Z" fill="#6C63FF"/>
<path opacity="0.1" d="M436.692 190.907H421.25V206.349H436.692V190.907Z" fill="#6C63FF"/>
<path opacity="0.1" d="M102.344 118.959H86.9019V134.401H102.344V118.959Z" fill="#6C63FF"/>
<path opacity="0.1" d="M102.344 154.827H86.9019V170.269H102.344V154.827Z" fill="#6C63FF"/>
<path opacity="0.1" d="M102.344 190.695H86.9019V206.137H102.344V190.695Z" fill="#6C63FF"/>
<path opacity="0.1" d="M102.344 226.558H86.9019V242H102.344V226.558Z" fill="#6C63FF"/>
<path opacity="0.1" d="M102.344 262.427H86.9019V277.869H102.344V262.427Z" fill="#6C63FF"/>
<path opacity="0.1" d="M102.344 298.295H86.9019V313.737H102.344V298.295Z" fill="#6C63FF"/>
<path opacity="0.1" d="M495.642 190.907H480.2V206.349H495.642V190.907Z" fill="#6C63FF"/>
<path opacity="0.1" d="M436.692 228.996H421.25V244.438H436.692V228.996Z" fill="#6C63FF"/>
<path opacity="0.1" d="M495.642 228.996H480.2V244.438H495.642V228.996Z" fill="#6C63FF"/>
<path opacity="0.1" d="M436.692 267.08H421.25V282.522H436.692V267.08Z" fill="#6C63FF"/>
<path opacity="0.1" d="M495.642 267.08H480.2V282.522H495.642V267.08Z" fill="#6C63FF"/>
<path opacity="0.1" d="M436.692 305.169H421.25V320.611H436.692V305.169Z" fill="#6C63FF"/>
<path opacity="0.1" d="M495.642 305.169H480.2V320.611H495.642V305.169Z" fill="#6C63FF"/>
<path opacity="0.1" d="M436.692 343.258H421.25V358.7H436.692V343.258Z" fill="#6C63FF"/>
<path opacity="0.1" d="M495.642 343.258H480.2V358.7H495.642V343.258Z" fill="#6C63FF"/>
<path opacity="0.1" d="M421.25 391.3V381.342H436.686V389.883L421.25 391.3Z" fill="#6C63FF"/>
<path opacity="0.1" d="M9.77344 162.005V170.839H62.6204V162.005H9.77344ZM15.0402 170.285H10.7291V162.548H15.0728L15.0402 170.285ZM20.3016 170.285H15.9578V162.548H20.3016V170.285ZM25.5521 170.285H21.2083V162.548H25.5521V170.285ZM30.8134 170.285H26.4751V162.548H30.8188L30.8134 170.285ZM36.0693 170.285H31.7256V162.548H36.0693V170.285ZM41.3307 170.285H36.9869V162.548H41.3307V170.285ZM46.592 170.285H42.2483V162.548H46.592V170.285ZM51.8479 170.285H47.5042V162.548H51.8479V170.285ZM57.1039 170.285H52.7601V162.548H57.1039V170.285ZM62.3598 170.285H58.016V162.548H62.3598V170.285Z" fill="#6C63FF"/>
<path opacity="0.1" d="M9.77344 187.709V196.543H62.6204V187.709H9.77344ZM15.0402 195.984H10.7291V188.268H15.0728L15.0402 195.984ZM20.3016 195.984H15.9578V188.268H20.3016V195.984ZM25.5521 195.984H21.2083V188.268H25.5521V195.984ZM30.8134 195.984H26.4751V188.268H30.8188L30.8134 195.984ZM36.0693 195.984H31.7256V188.268H36.0693V195.984ZM41.3307 195.984H36.9869V188.268H41.3307V195.984ZM46.592 195.984H42.2483V188.268H46.592V195.984ZM51.8479 195.984H47.5042V188.268H51.8479V195.984ZM57.1039 195.984H52.7601V188.268H57.1039V195.984ZM62.3598 195.984H58.016V188.268H62.3598V195.984Z" fill="#6C63FF"/>
<path opacity="0.1" d="M9.77344 213.424V222.274H62.6204V213.424H9.77344ZM15.0402 221.699H10.7291V213.978H15.0728L15.0402 221.699ZM20.3016 221.699H15.9578V213.978H20.3016V221.699ZM25.5521 221.699H21.2083V213.978H25.5521V221.699ZM30.8134 221.699H26.4751V213.978H30.8188L30.8134 221.699ZM36.0693 221.699H31.7256V213.978H36.0693V221.699ZM41.3307 221.699H36.9869V213.978H41.3307V221.699ZM46.592 221.699H42.2483V213.978H46.592V221.699ZM51.8479 221.699H47.5042V213.978H51.8479V221.699ZM57.1039 221.699H52.7601V213.978H57.1039V221.699ZM62.3598 221.699H58.016V213.978H62.3598V221.699Z" fill="#6C63FF"/>
<path opacity="0.1" d="M9.77344 239.139V247.962H62.6204V239.139H9.77344ZM15.0402 247.414H10.7291V239.687H15.0728L15.0402 247.414ZM20.3016 247.414H15.9578V239.687H20.3016V247.414ZM25.5521 247.414H21.2083V239.687H25.5521V247.414ZM30.8134 247.414H26.4751V239.687H30.8188L30.8134 247.414ZM36.0693 247.414H31.7256V239.687H36.0693V247.414ZM41.3307 247.414H36.9869V239.687H41.3307V247.414ZM46.592 247.414H42.2483V239.687H46.592V247.414ZM51.8479 247.414H47.5042V239.687H51.8479V247.414ZM57.1039 247.414H52.7601V239.687H57.1039V247.414ZM62.3598 247.414H58.016V239.687H62.3598V247.414Z" fill="#6C63FF"/>
<path opacity="0.1" d="M10.0015 264.848C10.2132 265.679 10.4521 266.51 10.7019 267.33V265.402H15.0456V273.123H12.7217C12.7923 273.302 12.8629 273.498 12.9335 273.666H62.6204V264.848H10.0015ZM20.3178 273.123H15.9741V265.402H20.3178V273.123ZM25.5683 273.123H21.2246V265.402H25.5683V273.123ZM30.8297 273.123H26.4751V265.402H30.8188L30.8297 273.123ZM36.0856 273.123H31.7419V265.402H36.0856V273.123ZM41.3469 273.123H37.0032V265.402H41.3469V273.123ZM46.6083 273.123H42.2645V265.402H46.6083V273.123ZM51.8642 273.123H47.5205V265.402H51.8642V273.123ZM57.1201 273.123H52.7764V265.402H57.1201V273.123ZM62.376 273.123H58.0323V265.402H62.376V273.123Z" fill="#6C63FF"/>
<path opacity="0.1" d="M22.2725 290.563C22.4082 290.737 22.5385 290.932 22.6797 291.106H25.552V294.815C25.8615 295.184 26.1655 295.553 26.4805 295.901V291.084H30.8242V298.833H29.065C29.2387 299.012 29.407 299.202 29.6079 299.376H62.6366V290.563H22.2725ZM36.0692 298.833H31.7255V291.117H36.0692V298.833ZM41.3306 298.833H36.9869V291.117H41.3306V298.833ZM46.5919 298.833H42.2482V291.117H46.5919V298.833ZM51.8479 298.833H47.5041V291.117H51.8479V298.833ZM57.1038 298.833H52.76V291.117H57.1038V298.833ZM62.3597 298.833H58.016V291.117H62.3597V298.833Z" fill="#6C63FF"/>
<path opacity="0.1" d="M51.2615 316.273C51.7556 316.555 52.2605 316.816 52.7709 317.098V316.827H57.1147V319.27L58.0377 319.699V316.827H62.3814V321.523C62.4647 321.565 62.5521 321.597 62.6421 321.621V316.273H51.2615Z" fill="#6C63FF"/>
<path opacity="0.1" d="M409.658 181.307H409.69H409.658ZM376.211 341.559H376.754H376.211ZM341.314 260.021C341.418 260.369 341.504 260.716 341.602 261.058C341.515 260.716 341.423 260.369 341.314 260.021ZM409.658 181.291H409.69H409.658ZM81.7057 99.9873V102.306H105.96V99.9873H81.7057ZM376.211 341.559H376.754H376.211ZM341.314 260.021C341.418 260.369 341.504 260.716 341.602 261.058C341.515 260.716 341.423 260.369 341.314 260.021ZM409.658 181.291H409.69H409.658ZM376.211 341.542H376.754H376.211ZM341.314 260.021C341.418 260.369 341.504 260.716 341.602 261.058C341.515 260.716 341.423 260.369 341.314 260.021Z" fill="#6C63FF"/>
<path d="M250.633 206.148C250.633 206.148 248.494 205.85 248.494 202.733C248.494 199.616 246.963 193.796 246.963 193.796C246.963 193.769 245.638 183.659 243.808 182.051C241.979 180.444 239.628 171.007 239.628 171.007C239.628 171.007 239.226 165.887 238.406 164.785C237.586 163.683 236.478 160.984 234.844 157.135C233.21 153.285 226.395 150.619 226.395 150.619C226.395 150.619 214.075 143.474 210.584 141.144C210.267 140.953 209.97 140.729 209.699 140.476C209.091 139.678 206.441 139.662 206.441 139.662C206.164 137.914 205.898 135.905 205.812 134.086C205.812 133.89 205.812 133.695 205.784 133.499C209.677 131.198 212.61 127.57 214.043 123.281C214.108 123.074 214.162 122.857 214.222 122.651C214.455 122.574 214.67 122.449 214.852 122.285C215.035 122.12 215.181 121.919 215.281 121.695C215.596 120.995 215.601 120.175 215.992 119.523C216.448 118.752 217.317 118.34 218.001 117.759C219.728 116.293 220.173 113.822 220.092 111.574C220.037 109.755 219.744 107.92 219.858 106.112L219.891 105.656C219.923 105.384 219.961 105.113 220.01 104.852C220.276 103.506 220.857 102.235 221.183 100.9C221.509 99.5638 221.541 98.0598 220.781 96.9087C219.668 95.2201 217.35 94.8834 215.313 94.7097C213.006 94.5142 210.943 94.7694 209.466 92.8527C208.774 91.851 207.997 90.9117 207.142 90.0456C206.838 89.7633 203.884 87.9606 203.884 87.8412C201.001 86.506 197.733 86.2553 194.681 87.1353C193.15 87.5805 191.705 88.3081 190.152 88.6719C186.802 89.4646 182.947 88.6068 180.102 90.5234C178.517 91.6094 177.566 93.336 176.676 95.0192C175.952 96.4056 175.217 97.7901 174.471 99.1729C173.272 101.448 172.05 103.761 171.545 106.28C171.439 106.829 171.373 107.384 171.349 107.942V107.969C171.349 108.17 171.349 108.371 171.349 108.572V108.827C171.349 109.017 171.349 109.201 171.382 109.37C171.415 109.538 171.409 109.592 171.425 109.706C171.442 109.82 171.469 110.076 171.501 110.249C171.534 110.423 171.599 110.727 171.664 110.966C171.691 111.069 171.729 111.167 171.762 111.265C171.816 111.449 171.882 111.629 171.952 111.808C171.99 111.9 172.028 111.998 172.072 112.09C172.153 112.28 172.251 112.465 172.348 112.633C172.392 112.709 172.425 112.78 172.468 112.85C172.619 113.103 172.786 113.346 172.967 113.578C174.129 115.028 175.84 115.951 177.105 117.308C177.105 117.362 177.105 117.417 177.105 117.465C177.105 117.617 177.105 117.764 177.105 117.916C177.172 120.943 177.978 123.908 179.452 126.553C180.926 129.198 183.025 131.443 185.564 133.092C185.564 133.298 185.591 133.51 185.602 133.716C185.708 135.328 185.688 136.946 185.543 138.554C185.321 138.294 185.045 138.086 184.733 137.947C184.421 137.808 184.081 137.741 183.74 137.751C183.507 137.739 183.273 137.759 183.045 137.81L182.996 137.772V137.821C181.802 138.114 180.33 139.358 178.924 142.893C178.924 142.893 174.645 147.714 171.387 147.513C168.13 147.312 159.882 152.53 159.882 152.53C159.882 152.53 151.835 157.754 150.109 163.075C149.143 166.092 147.986 169.044 146.644 171.914L136.697 192.411L134.862 208.673C134.862 208.673 135.877 215.905 135.677 217.008C135.476 218.11 139.852 228.051 139.852 228.051C139.852 228.051 154.311 253.457 160.219 254.76L160.642 254.461C160.895 254.593 161.163 254.694 161.44 254.76L162.657 253.902C162.73 254.858 162.699 255.82 162.564 256.769C161.75 259.278 162.868 275.648 164.291 278.857C165.713 282.066 165.208 324.14 165.208 324.14L165.008 327.854C165.008 327.854 165.008 327.974 165.056 328.18L165.008 329.06L165.154 329.136C165.306 330.314 165.257 331.509 165.008 332.67C164.497 334.299 164.291 338.904 164.291 338.904C164.291 338.904 160.224 364.901 162.152 370.124C164.079 375.347 165.719 381.07 165.719 381.07C165.719 381.07 167.755 387.586 165.817 388.699C163.878 389.812 158.367 391.68 159.502 394.395C160.534 396.903 164.448 403.625 165.029 404.608L164.98 405.124L164.182 413.773C164.312 414.915 164.621 416.03 165.1 417.075C165.974 418.959 167.674 420.913 170.904 420.702C171.447 420.664 172.077 420.598 172.685 420.517C178.598 419.724 185.879 417.085 185.879 417.085C185.501 416.845 185.155 416.559 184.848 416.233C184.557 415.951 184.327 415.614 184.171 415.24C184.015 414.867 183.937 414.466 183.941 414.061C184.028 412.486 181.079 404.983 180.346 403.137C180.232 402.87 180.173 402.718 180.173 402.718C180.173 402.718 186.895 395.692 185.776 389.465C185.776 389.465 178.337 385.121 180.786 382.737C183.235 380.354 187.611 373.507 187.611 373.507C187.611 373.507 187.812 347.906 187.611 344.083C187.402 341.43 187.528 338.761 187.986 336.14C188.067 335.744 188.165 335.358 188.268 334.978C191.655 335.483 195.074 335.743 198.498 335.754C199.747 335.754 201.017 335.754 202.299 335.678C202.299 336.04 202.315 336.431 202.347 336.851C202.63 343.193 203.156 354.313 203.585 358.445C204.193 364.369 207.554 380.332 207.554 380.332C207.554 380.332 201.142 384.448 208.673 394.59C208.673 394.59 208.673 398.266 208.173 398.798C207.64 400.538 207.21 402.307 206.887 404.098C206.572 406.009 206.441 407.942 206.952 408.946C208.173 411.346 215.503 411.151 215.503 411.151L215.683 411.118C217.066 410.975 218.465 411.108 219.797 411.51C221.129 411.912 222.368 412.574 223.442 413.458C226.227 415.695 236.799 414.713 242.522 414.001C244.764 413.719 246.263 413.458 246.263 413.458C246.335 413.205 246.361 412.94 246.339 412.676C246.279 411.27 245.177 408.186 237.705 405.433C237.705 405.433 230.679 400.709 230.777 396.594H230.631H229.816C230.408 396.561 230.788 396.594 230.788 396.594C230.788 396.594 228.035 386.549 229.159 385.734C230.283 384.92 226.917 373.789 226.917 373.789C226.917 373.789 224.989 355.111 224.886 353.803C224.89 352.68 225.06 351.564 225.391 350.491L224.886 340.25C224.886 340.25 224.788 336.846 224.886 335.738C224.87 334.777 224.792 333.817 224.652 332.866C224.604 332.486 224.555 332.089 224.5 331.698C227.134 331.031 228.844 330.412 228.844 330.412L228.54 294.766C230.777 290.422 231.19 280.893 231.179 274.133C231.179 269.789 230.983 266.575 230.983 266.575L234.04 261.585C234.04 261.585 234.746 255.612 233.628 254.304C233.134 253.712 233.356 253.099 233.763 252.594C233.975 252.426 234.198 252.273 234.431 252.137C234.431 252.137 234.399 252.089 234.361 252.018C234.574 251.84 234.801 251.678 235.039 251.535C235.039 251.535 233.954 249.852 234.925 249.14C235.838 249.759 236.652 250.226 237.271 250.606C237.228 251.003 237.184 251.231 237.184 251.231L237.445 250.688C238.042 251.024 238.406 251.231 238.406 251.231C238.406 251.231 243.195 241.691 243.092 240.285C242.988 238.878 246.349 232.954 246.349 232.954C246.349 232.954 246.757 229.843 248.592 228.54C250.427 227.237 250.014 217.795 250.014 217.795C250.014 217.795 250.525 212.876 251.747 210.867C252.968 208.858 250.633 206.148 250.633 206.148ZM159.002 201.962L159.095 204.237C158.552 203.363 158.161 202.733 158.161 202.733L159.002 201.962Z" fill="url(#paint0_linear)"/>
<path d="M238.666 247.11L237.494 252.105C237.494 252.105 228.1 247.311 226.406 241.218C224.712 235.126 229.241 232.813 229.241 232.813L237.993 236.522L238.666 247.11Z" fill="white"/>
<path opacity="0.1" d="M238.666 247.11L237.494 252.105C237.494 252.105 228.1 247.311 226.406 241.218C224.712 235.126 229.241 232.813 229.241 232.813L237.993 236.522L238.666 247.11Z" fill="black"/>
<path d="M185.95 417.118C185.95 417.118 177.262 420.311 171.29 420.712C168.119 420.924 166.452 418.98 165.594 417.107C165.125 416.066 164.823 414.957 164.698 413.822L165.475 405.216L165.887 400.633L178.576 397.338L180.374 402.832L180.542 403.251C181.264 405.086 184.158 412.552 184.071 414.11C184.068 414.509 184.145 414.905 184.298 415.273C184.451 415.642 184.677 415.975 184.962 416.255C185.253 416.583 185.585 416.873 185.95 417.118Z" fill="white"/>
<path d="M245.291 412.742C245.312 413.003 245.287 413.266 245.215 413.518C245.215 413.518 226.634 416.618 222.834 413.518C221.762 412.612 220.513 411.941 219.166 411.546C217.82 411.151 216.406 411.043 215.015 411.227C215.015 411.227 207.826 411.422 206.626 409.055C206.127 408.061 206.257 406.134 206.566 404.233C206.882 402.453 207.303 400.692 207.826 398.961L208.114 398.733L209.824 397.359L229.849 396.768H230.001C229.903 400.861 236.799 405.558 236.799 405.558C244.123 408.273 245.204 411.341 245.291 412.742Z" fill="white"/>
<path opacity="0.1" d="M245.291 412.742C245.31 413.003 245.282 413.266 245.209 413.518C245.209 413.518 226.634 416.618 222.834 413.518C221.763 412.613 220.514 411.942 219.169 411.547C217.823 411.153 216.41 411.043 215.02 411.227C215.02 411.227 207.826 411.422 206.631 409.055C206.132 408.056 206.257 406.134 206.566 404.233C209.335 404.51 213.706 405.2 215.422 406.845C218.017 409.348 222.415 411.846 225.114 412.041C227.226 412.177 239.861 412.579 245.291 412.742Z" fill="black"/>
<path opacity="0.1" d="M185.95 417.118C185.95 417.118 177.262 420.311 171.29 420.712C168.119 420.924 166.452 418.98 165.599 417.102C167.809 417.846 170.877 418.627 172.49 417.911C174.401 417.064 181.177 416.515 184.978 416.282C185.267 416.598 185.594 416.879 185.95 417.118Z" fill="black"/>
<path d="M198.84 159.833C191.673 157.048 182.453 147.844 184.755 143.544C185.267 142.459 185.57 141.288 185.651 140.091C185.799 138.466 185.821 136.832 185.716 135.204C185.555 132.538 185.234 129.883 184.755 127.255C184.755 127.255 207.131 127.76 205.828 131.056C205.448 132.022 205.388 133.7 205.491 135.579C205.594 137.457 205.866 139.58 206.148 141.378C206.539 143.843 206.93 145.721 206.93 145.721C206.93 145.721 205.562 147.638 204.758 147.741C203.955 147.844 209.124 163.802 198.84 159.833Z" fill="#CF6F80"/>
<path opacity="0.1" d="M180.526 403.251L180.357 403.435C173.668 395.345 165.578 405.428 165.578 405.428L165.458 405.216L165.871 400.633L178.56 397.338L180.357 402.832L180.526 403.251Z" fill="black"/>
<path opacity="0.1" d="M230.006 397.338C230.006 397.338 225.119 397.234 222.513 399.537C219.907 401.839 207.31 400.036 207.853 399.537C208.014 399.289 208.111 399.006 208.135 398.711L209.846 397.338L229.87 396.746C229.946 397.11 230.006 397.338 230.006 397.338Z" fill="black"/>
<path d="M188.849 333.805C188.485 334.705 188.209 335.638 188.024 336.59C187.571 339.2 187.445 341.856 187.649 344.496C187.85 348.297 187.649 373.767 187.649 373.767C187.649 373.767 183.354 380.56 180.96 382.954C178.566 385.349 185.847 389.649 185.847 389.649C186.933 395.839 180.352 402.832 180.352 402.832C173.663 394.742 165.572 404.831 165.572 404.831C165.572 404.831 161.174 397.229 160.078 394.514C158.981 391.799 164.372 389.921 166.267 388.818C168.162 387.716 166.175 381.217 166.175 381.217C166.175 381.217 164.573 375.521 162.673 370.325C160.773 365.129 164.769 339.262 164.769 339.262C164.769 339.262 164.975 334.668 165.469 333.067C165.718 331.911 165.768 330.721 165.616 329.548C165.583 329.152 165.545 328.821 165.518 328.598C165.491 328.375 165.469 328.272 165.469 328.272L165.545 328.142L168.26 323.081C168.26 323.081 190.152 330.618 188.849 333.805Z" fill="#6C63FF"/>
<path d="M230.006 396.74C230.006 396.74 225.12 396.637 222.513 398.912C219.907 401.187 207.31 399.412 207.853 398.912C208.396 398.413 208.353 394.715 208.353 394.715C200.963 384.627 207.267 380.533 207.267 380.533C207.267 380.533 203.966 364.651 203.368 358.76C202.95 354.644 202.434 343.584 202.157 337.269C202.038 334.554 201.967 332.687 201.967 332.687L208.005 331.47L208.782 331.313L223.344 328.392C223.344 328.392 223.746 331.107 224.017 333.327C224.153 334.275 224.229 335.231 224.245 336.189C224.148 337.275 224.245 340.674 224.245 340.674L224.739 350.865C224.417 351.934 224.25 353.044 224.245 354.161C224.343 355.459 226.238 374.039 226.238 374.039C226.238 374.039 229.534 385.126 228.41 385.925C227.286 386.723 230.006 396.74 230.006 396.74Z" fill="#6C63FF"/>
<path opacity="0.1" d="M205.828 131.056C205.448 132.022 205.388 133.7 205.491 135.579C202.494 137.384 199.049 138.306 195.551 138.241C192.053 138.176 188.644 137.125 185.716 135.21C185.555 132.541 185.234 129.885 184.755 127.255C184.755 127.255 207.131 127.749 205.828 131.056Z" fill="black"/>
<path d="M214.477 119.056C214.482 121.013 214.174 122.958 213.565 124.817C212.205 128.984 209.415 132.535 205.69 134.844C201.964 137.153 197.542 138.07 193.206 137.434C188.869 136.798 184.897 134.649 181.992 131.368C179.086 128.086 177.434 123.883 177.328 119.502C177.328 119.35 177.328 119.208 177.328 119.056C177.285 116.59 177.735 114.14 178.649 111.849C179.564 109.558 180.926 107.472 182.655 105.713C184.384 103.954 186.447 102.557 188.721 101.603C190.996 100.65 193.438 100.158 195.905 100.158C198.372 100.158 200.814 100.65 203.089 101.603C205.364 102.557 207.426 103.954 209.155 105.713C210.885 107.472 212.246 109.558 213.161 111.849C214.076 114.14 214.525 116.59 214.483 119.056H214.477Z" fill="#CF6F80"/>
<path opacity="0.1" d="M198.84 159.833C191.673 157.048 182.453 147.844 184.755 143.544C185.267 142.459 185.57 141.288 185.651 140.091L195.463 148.154L201.533 153.133L206.148 141.383C206.539 143.848 206.93 145.727 206.93 145.727C206.93 145.727 205.562 147.644 204.758 147.747C203.955 147.85 209.124 163.802 198.84 159.833Z" fill="black"/>
<path d="M224.213 195.468L216.019 333.11L205.334 333.811L177.664 254L182.203 159.247L183.159 139.228L195.463 149.332L201.538 154.311L206.289 142.219L215.123 149.919L224.213 195.468Z" fill="#6C63FF"/>
<path opacity="0.1" d="M188.849 333.805C188.485 334.705 188.209 335.638 188.024 336.591C180.249 335.39 172.697 333.031 165.621 329.592L165.475 329.516L165.523 328.642L165.551 328.185L168.265 323.125C168.265 323.125 190.152 330.618 188.849 333.805Z" fill="black"/>
<path opacity="0.1" d="M208.13 336.612C206.142 336.95 204.138 337.179 202.125 337.296C202.005 334.582 201.935 332.714 201.935 332.714L207.973 331.497L208.13 336.612Z" fill="black"/>
<path opacity="0.1" d="M223.985 333.354C220.124 334.359 214.162 335.488 208.825 334.782L208.749 331.34L223.311 328.419C223.311 328.419 223.713 331.107 223.985 333.354Z" fill="black"/>
<path opacity="0.1" d="M208.727 335.412C186.466 339.213 166.077 328.316 166.077 328.316L166.273 324.624C166.273 324.624 166.778 282.766 165.377 279.557C163.976 276.348 162.885 260.076 163.677 257.578C164.47 255.08 160.783 217.627 160.783 217.627L160.186 202.423L138.326 193.568L148.1 173.196C149.42 170.339 150.555 167.401 151.499 164.399C153.198 159.111 161.087 153.915 161.087 153.915C161.087 153.915 169.178 148.724 172.376 148.919C175.574 149.115 179.765 144.326 179.765 144.326C182.86 136.437 185.662 140.009 185.662 140.009C185.662 140.384 185.662 140.009 185.51 141.177C184.424 149.837 203.07 177.203 203.336 177.686L205.111 220.939L206.908 275.675L208.727 335.412Z" fill="black"/>
<path d="M208.13 335.412C185.868 339.213 165.475 328.316 165.475 328.316L165.675 324.624C165.675 324.624 166.18 282.766 164.774 279.557C163.368 276.348 162.282 260.076 163.08 257.578C163.878 255.08 160.186 217.626 160.186 217.626L159.583 202.423L137.713 193.535L147.486 173.163C148.803 170.305 149.939 167.368 150.885 164.367C152.579 159.078 160.474 153.882 160.474 153.882C160.474 153.882 168.564 148.691 171.757 148.887C174.949 149.082 179.146 144.293 179.146 144.293C182.247 136.404 185.662 139.977 185.662 139.977C185.662 140.351 185.336 140.52 185.51 141.144C187.899 149.544 202.472 177.17 202.738 177.653L204.536 220.906L206.333 275.642L208.13 335.412Z" fill="white"/>
<path opacity="0.1" d="M202.13 178.886C199.736 177.887 187.052 163.406 187.052 163.406V160.11C186.59 159.024 183.848 159.687 181.622 160.447L182.578 140.427L183.664 141.329C186.042 149.723 201.853 178.403 202.13 178.886Z" fill="black"/>
<path d="M202.733 177.686C200.333 176.687 187.649 162.206 187.649 162.206V158.91C187.188 157.824 184.446 158.487 182.22 159.247L183.181 139.228L184.267 140.129C186.65 148.523 202.467 177.208 202.733 177.686Z" fill="white"/>
<path opacity="0.1" d="M166.077 249.906C166.376 249.906 181.557 248.31 181.557 248.31C181.557 248.31 190.75 266.385 190.147 270.783C189.544 275.181 188.453 279.074 184.755 278.384C181.058 277.695 164.856 278.927 164.856 278.927L166.077 249.906Z" fill="black"/>
<path d="M165.474 248.706C165.773 248.706 180.954 247.11 180.954 247.11C180.954 247.11 190.141 265.19 189.544 269.583C188.947 273.976 187.845 277.874 184.153 277.185C180.46 276.495 164.253 277.728 164.253 277.728L165.474 248.706Z" fill="white"/>
<path d="M176.915 240.219C176.915 240.219 190.847 247.707 191.146 249.993C191.445 252.279 184.055 248.994 182.459 248.597C181.408 248.344 180.338 248.177 179.26 248.098L168.613 248.386L176.915 240.219Z" fill="#CF6F80"/>
<path opacity="0.1" d="M198.243 179.82C199.052 179.82 199.709 179.163 199.709 178.354C199.709 177.544 199.052 176.888 198.243 176.888C197.433 176.888 196.777 177.544 196.777 178.354C196.777 179.163 197.433 179.82 198.243 179.82Z" fill="black"/>
<path d="M198.243 179.222C199.052 179.222 199.709 178.566 199.709 177.756C199.709 176.947 199.052 176.29 198.243 176.29C197.433 176.29 196.777 176.947 196.777 177.756C196.777 178.566 197.433 179.222 198.243 179.222Z" fill="#3F3D56"/>
<path opacity="0.1" d="M200.941 243.282C201.751 243.282 202.407 242.625 202.407 241.816C202.407 241.006 201.751 240.35 200.941 240.35C200.131 240.35 199.475 241.006 199.475 241.816C199.475 242.625 200.131 243.282 200.941 243.282Z" fill="black"/>
<path d="M200.941 242.679C201.751 242.679 202.407 242.023 202.407 241.213C202.407 240.403 201.751 239.747 200.941 239.747C200.131 239.747 199.475 240.403 199.475 241.213C199.475 242.023 200.131 242.679 200.941 242.679Z" fill="#3F3D56"/>
<path opacity="0.1" d="M199.703 211.551C200.513 211.551 201.169 210.894 201.169 210.085C201.169 209.275 200.513 208.619 199.703 208.619C198.894 208.619 198.237 209.275 198.237 210.085C198.237 210.894 198.894 211.551 199.703 211.551Z" fill="black"/>
<path d="M199.703 210.953C200.513 210.953 201.169 210.297 201.169 209.487C201.169 208.678 200.513 208.021 199.703 208.021C198.894 208.021 198.237 208.678 198.237 209.487C198.237 210.297 198.894 210.953 199.703 210.953Z" fill="#3F3D56"/>
<path d="M233.497 247.794C233.497 247.794 234.496 249.292 233.497 249.993C232.498 250.693 233.595 252.387 233.595 252.387C233.595 252.387 231.103 253.848 232.2 255.162C233.296 256.476 232.601 262.41 232.601 262.41L229.604 267.373C229.604 267.373 229.783 270.571 229.794 274.893C229.794 281.637 229.398 291.117 227.204 295.439L227.508 330.9C227.508 330.9 217.013 334.734 208.228 333.566L206.925 276.663C206.925 276.663 208.825 244.395 209.525 238.205C209.935 234.991 210.102 231.752 210.025 228.513C210.025 228.513 209.726 218.826 208.722 214.331C208.722 214.331 207.636 194.854 207.527 189.463C207.478 186.884 207.614 179.358 207.766 172.202C207.935 164.378 208.125 156.999 208.125 156.999L206.143 141.318C206.143 141.318 208.125 141.117 208.722 141.915C208.989 142.165 209.28 142.389 209.591 142.583C213.011 144.896 225.098 152.009 225.098 152.009C225.098 152.009 231.787 154.67 233.389 158.481C234.991 162.293 236.104 164.997 236.88 166.083C237.656 167.169 238.08 172.273 238.08 172.273C238.08 172.273 240.382 181.666 242.179 183.257C243.977 184.848 245.291 194.969 245.291 194.969L229.409 207.457C229.409 207.457 228.013 228.231 227.715 229.034C227.416 229.838 233.497 247.794 233.497 247.794Z" fill="white"/>
<path d="M234.1 247.794C234.1 247.794 235.094 249.292 234.1 249.993C233.106 250.693 234.192 252.387 234.192 252.387C234.192 252.387 231.716 253.864 232.802 255.178C233.888 256.492 233.204 262.427 233.204 262.427L230.207 267.389C230.207 267.389 230.386 270.587 230.403 274.91C230.403 281.653 230.006 291.133 227.813 295.455L228.111 330.917C228.111 330.917 217.599 334.75 208.825 333.583L207.527 276.68C207.527 276.68 209.428 244.411 210.128 238.221C210.538 235.008 210.704 231.768 210.622 228.529C210.622 228.529 210.324 218.843 209.325 214.347C209.325 214.347 208.239 194.871 208.125 189.479C208.076 186.9 208.217 179.375 208.363 172.218C208.532 164.394 208.722 157.015 208.722 157.015L206.105 141.122C206.105 141.122 208.722 141.122 209.325 141.932C209.59 142.184 209.881 142.408 210.193 142.599C213.614 144.912 225.706 152.025 225.706 152.025C225.706 152.025 232.39 154.686 233.992 158.497C235.593 162.309 236.706 165.013 237.488 166.099C238.27 167.185 238.683 172.289 238.683 172.289C238.683 172.289 240.985 181.682 242.782 183.273C244.579 184.864 245.877 194.963 245.877 194.963L229.995 207.451C229.995 207.451 228.6 228.225 228.296 229.029C227.992 229.832 234.1 247.794 234.1 247.794Z" fill="white"/>
<path opacity="0.1" d="M215.08 161.625L216.513 165.806L208.966 173.407C209.135 165.589 209.325 158.204 209.325 158.204L206.708 142.312C206.708 142.312 209.325 142.312 209.927 143.121C210.192 143.373 210.483 143.595 210.796 143.783L217.214 162.298L215.08 161.625Z" fill="black"/>
<path d="M214.477 160.425L215.916 164.606L208.369 172.207C208.537 164.383 208.727 157.004 208.727 157.004L206.105 141.112C206.105 141.112 208.727 141.112 209.325 141.921C209.591 142.172 209.882 142.396 210.193 142.588L216.617 161.098L214.477 160.425Z" fill="white"/>
<path opacity="0.1" d="M214.477 119.056C214.482 121.013 214.174 122.958 213.565 124.817C213.463 124.833 213.358 124.828 213.257 124.803C213.156 124.778 213.062 124.733 212.979 124.671C212.838 119.784 210.432 115.196 207.473 111.292C206.642 110.113 205.635 109.069 204.487 108.197C203.326 107.325 201.882 106.917 200.436 107.051C198.807 107.274 197.368 108.382 195.723 108.523C193.551 108.702 191.608 107.198 189.452 107.122C188.576 107.13 187.711 107.325 186.916 107.694C186.121 108.063 185.414 108.597 184.842 109.261C183.71 110.601 182.868 112.161 182.372 113.844C181.518 116.395 181.053 119.06 180.993 121.749C180.965 123.27 180.819 125.176 179.407 125.729C179.513 124.611 179.386 123.483 179.034 122.417C178.682 121.35 178.112 120.369 177.36 119.534L177.328 119.502C177.328 119.35 177.328 119.208 177.328 119.056C177.285 116.59 177.735 114.14 178.649 111.849C179.564 109.558 180.926 107.472 182.655 105.713C184.384 103.954 186.447 102.557 188.721 101.603C190.996 100.65 193.438 100.158 195.905 100.158C198.372 100.158 200.814 100.65 203.089 101.603C205.364 102.557 207.426 103.954 209.155 105.713C210.885 107.472 212.246 109.558 213.161 111.849C214.076 114.14 214.525 116.59 214.483 119.056H214.477Z" fill="black"/>
<path d="M203.596 89.5569C200.775 88.2297 197.566 87.9787 194.572 88.8511C193.068 89.2963 191.651 90.0185 190.125 90.3822C186.867 91.1695 183.067 90.3171 180.27 92.2229C178.718 93.3088 177.784 95.0246 176.915 96.6915L174.743 100.829C173.559 103.093 172.365 105.395 171.871 107.887C171.377 110.38 171.675 113.171 173.255 115.174C174.406 116.635 176.106 117.552 177.355 118.926C178.103 119.762 178.67 120.743 179.022 121.808C179.373 122.873 179.5 123.999 179.396 125.116C180.813 124.573 180.949 122.662 180.982 121.141C181.042 118.452 181.507 115.787 182.361 113.236C182.856 111.553 183.698 109.992 184.831 108.653C185.404 107.99 186.111 107.456 186.906 107.087C187.701 106.718 188.565 106.523 189.441 106.514C191.613 106.59 193.562 108.088 195.712 107.909C197.341 107.773 198.786 106.66 200.425 106.443C201.871 106.306 203.316 106.715 204.476 107.589C205.624 108.46 206.629 109.504 207.457 110.684C210.421 114.588 212.827 119.165 212.968 124.062C213.581 124.513 214.466 123.927 214.771 123.232C215.075 122.537 215.085 121.722 215.471 121.06C215.916 120.294 216.769 119.887 217.436 119.312C219.131 117.851 219.554 115.391 219.489 113.16C219.424 110.928 218.989 108.664 219.413 106.47C219.668 105.124 220.244 103.864 220.559 102.534C220.873 101.204 220.911 99.7104 220.168 98.5648C219.082 96.8816 216.796 96.5503 214.803 96.3929C212.539 96.1974 210.514 96.4472 209.069 94.5414C208.391 93.5468 207.628 92.6131 206.789 91.7505C206.501 91.4682 203.596 89.6764 203.596 89.5569Z" fill="#512E4E"/>
<path opacity="0.1" d="M144.581 204.058L138.907 193.568L137.11 209.753C137.11 209.753 138.109 216.942 137.908 218.045C137.707 219.147 142.002 229.029 142.002 229.029C142.002 229.029 156.19 254.298 161.983 255.602L181.557 241.615L176.366 235.023C176.366 235.023 174.569 234.323 174.119 235.023C174.119 235.023 164.481 218.441 163.482 217.241C162.483 216.041 162.678 213.647 162.678 213.647C162.678 213.647 161.18 212.05 161.679 210.552C162.179 209.053 158.785 203.857 158.785 203.857L161.88 200.963L144.581 204.058Z" fill="black"/>
<path d="M139.206 192.373L137.707 193.568L135.91 209.753C135.91 209.753 136.909 216.942 136.708 218.045C136.507 219.147 140.808 229.029 140.808 229.029C140.808 229.029 154.99 254.298 160.783 255.602L180.363 241.615L175.167 235.023C175.167 235.023 173.369 234.323 172.919 235.023C172.919 235.023 163.281 218.441 162.282 217.241C161.283 216.041 161.484 213.647 161.484 213.647C161.484 213.647 159.985 212.05 160.485 210.552C160.984 209.053 157.585 203.857 157.585 203.857L160.68 200.963L139.206 192.373Z" fill="white"/>
<path opacity="0.1" d="M232.2 255.781C233.286 257.1 232.601 263.024 232.601 263.024L229.604 267.987C229.604 267.987 229.783 271.19 229.794 275.507L224.756 277.081C224.3 277.224 223.817 277.255 223.348 277.173C222.878 277.09 222.434 276.897 222.054 276.608C221.674 276.32 221.369 275.944 221.164 275.514C220.958 275.083 220.859 274.61 220.873 274.133L221.742 246.111L233.497 250.606C232.498 251.301 233.595 253.006 233.595 253.006C233.595 253.006 231.103 254.461 232.2 255.781Z" fill="black"/>
<path d="M232.802 255.178C233.888 256.497 233.204 262.427 233.204 262.427L230.207 267.389C230.207 267.389 230.386 270.587 230.402 274.91L225.271 276.511C224.825 276.65 224.353 276.68 223.893 276.599C223.433 276.518 222.999 276.328 222.627 276.046C222.255 275.763 221.957 275.396 221.755 274.974C221.554 274.553 221.457 274.089 221.471 273.623L222.345 245.513L234.106 250.009C233.101 250.704 234.198 252.404 234.198 252.404C234.198 252.404 231.716 253.864 232.802 255.178Z" fill="white"/>
<path d="M236.695 241.821C236.695 241.821 235.897 246.92 233.899 247.218C231.901 247.517 231.005 255.466 229.012 255.184C227.02 254.901 228.339 247.794 228.41 246.415C228.48 245.035 226.238 239.323 227.916 238.026C229.593 236.728 234.904 238.026 234.904 238.026L236.695 241.821Z" fill="#CF6F80"/>
<path opacity="0.1" d="M240.947 202.559L244.715 194.958C244.715 194.958 246.214 200.751 246.214 203.846C246.214 206.941 248.31 207.245 248.31 207.245C248.31 207.245 250.606 209.96 249.396 211.936C248.185 213.913 247.696 218.832 247.696 218.832C247.696 218.832 248.092 228.22 246.295 229.517C244.498 230.815 244.123 233.916 244.123 233.916C244.123 233.916 240.822 239.807 240.925 241.208C241.028 242.608 236.332 252.094 236.332 252.094C236.332 252.094 238.628 240.306 225.244 235.213C225.244 235.213 225.141 231.212 226.14 230.115C227.139 229.018 228.698 228.518 227.72 222.975C226.743 217.431 227.438 210.807 227.438 209.477C227.438 208.146 230.435 199.85 230.435 199.85L240.947 202.559Z" fill="black"/>
<path d="M242.576 193.872L245.866 194.958C245.866 194.958 247.37 200.751 247.37 203.846C247.37 206.941 249.466 207.245 249.466 207.245C249.466 207.245 251.763 209.96 250.552 211.936C249.341 213.913 248.858 218.832 248.858 218.832C248.858 218.832 249.254 228.22 247.457 229.517C245.66 230.815 245.258 233.916 245.258 233.916C245.258 233.916 241.962 239.807 242.065 241.208C242.169 242.608 237.466 252.094 237.466 252.094C237.466 252.094 239.769 240.306 226.379 235.213C226.379 235.213 226.281 231.212 227.28 230.115C228.279 229.018 229.838 228.518 228.86 222.975C227.883 217.431 228.578 210.807 228.578 209.477C228.578 208.146 231.575 199.85 231.575 199.85L242.576 193.872Z" fill="white"/>
<path opacity="0.1" d="M169.9 390.898C169.9 390.898 175.145 387.602 178.587 389.997C182.03 392.391 169.9 390.898 169.9 390.898Z" fill="black"/>
<path opacity="0.1" d="M210.655 380.707C210.655 380.707 215.297 380.109 219.196 384.306C223.094 388.504 210.655 380.707 210.655 380.707Z" fill="black"/>
<g opacity="0.1">
<path opacity="0.1" d="M217.447 118.122C216.779 118.698 215.922 119.111 215.476 119.876C215.096 120.533 215.085 121.342 214.781 122.048C214.477 122.754 213.592 123.329 212.979 122.884C212.838 117.998 210.427 113.409 207.468 109.5C206.64 108.32 205.635 107.276 204.487 106.405C203.325 105.531 201.878 105.123 200.431 105.26C198.802 105.482 197.368 106.59 195.723 106.726C193.551 106.91 191.602 105.406 189.447 105.33C188.571 105.339 187.707 105.535 186.912 105.905C186.118 106.274 185.413 106.81 184.842 107.475C183.709 108.812 182.867 110.371 182.372 112.052C181.518 114.603 181.054 117.268 180.993 119.958C180.96 121.473 180.819 123.362 179.418 123.927C179.451 124.328 179.451 124.731 179.418 125.132C180.83 124.589 180.971 122.678 181.003 121.158C181.064 118.468 181.529 115.803 182.383 113.252C182.878 111.569 183.72 110.008 184.853 108.669C185.425 108.006 186.131 107.472 186.925 107.104C187.719 106.735 188.582 106.539 189.457 106.53C191.629 106.606 193.584 108.105 195.734 107.925C197.363 107.79 198.807 106.677 200.442 106.459C201.889 106.323 203.335 106.731 204.498 107.605C205.646 108.476 206.651 109.52 207.478 110.7C210.438 114.604 212.848 119.181 212.99 124.079C213.603 124.529 214.488 123.943 214.792 123.248C215.096 122.553 215.107 121.739 215.487 121.076C215.932 120.311 216.79 119.903 217.458 119.328C219.152 117.867 219.576 115.408 219.511 113.176C219.511 113.105 219.511 113.035 219.511 112.97C219.407 114.903 218.892 116.874 217.447 118.122Z" fill="black"/>
<path opacity="0.1" d="M177.366 117.737C176.117 116.363 174.412 115.446 173.266 113.99C172.301 112.702 171.75 111.152 171.686 109.544C171.515 111.553 172.076 113.557 173.266 115.185C174.412 116.646 176.117 117.563 177.366 118.937C178.565 120.281 179.284 121.984 179.413 123.78C179.496 122.687 179.357 121.588 179.005 120.55C178.654 119.511 178.096 118.555 177.366 117.737Z" fill="black"/>
<path opacity="0.1" d="M220.569 101.345C220.249 102.675 219.679 103.94 219.418 105.281C219.264 106.177 219.208 107.088 219.25 107.996C219.268 107.479 219.324 106.963 219.418 106.454C219.679 105.108 220.249 103.848 220.569 102.518C220.756 101.784 220.817 101.024 220.749 100.27C220.715 100.632 220.655 100.991 220.569 101.345Z" fill="black"/>
</g>
<path opacity="0.1" d="M72.0679 412.975C101.287 412.975 124.975 409.171 124.975 404.478C124.975 399.785 101.287 395.98 72.0679 395.98C42.8484 395.98 19.1613 399.785 19.1613 404.478C19.1613 409.171 42.8484 412.975 72.0679 412.975Z" fill="#6C63FF"/>
<path d="M73.7729 241.696H70.3685V318.347H73.7729V241.696Z" fill="#535461"/>
<path d="M95.1658 318.113L94.954 321.567L94.65 326.453L94.5251 328.484L94.2265 333.371L94.0961 335.401L93.7921 340.288L90.3605 395.709C90.2114 398.093 89.1592 400.331 87.4182 401.967C85.6772 403.604 83.3781 404.515 80.9889 404.516H63.1471C60.7584 404.515 58.46 403.603 56.7199 401.967C54.9797 400.331 53.9287 398.093 53.7809 395.709L50.3656 340.25L50.0616 335.363L49.9367 333.333L49.6326 328.446L49.5077 326.415L49.2037 321.529L48.9865 318.075C48.9488 317.411 49.0472 316.745 49.2759 316.12C49.5045 315.495 49.8585 314.923 50.3161 314.44C50.7736 313.956 51.3252 313.571 51.9369 313.308C52.5486 313.046 53.2075 312.911 53.8732 312.912H90.366C91.0292 312.917 91.6842 313.059 92.2905 313.328C92.8969 313.596 93.4418 313.986 93.8915 314.474C94.3413 314.961 94.6864 315.536 94.9056 316.162C95.1247 316.788 95.2133 317.452 95.1658 318.113Z" fill="#3F3D56"/>
<path d="M94.954 321.567L94.6499 326.437H49.4859L49.1819 321.567H94.954Z" fill="#9D9CB5"/>
<path d="M94.525 328.468L94.2264 333.344H49.9149L49.6108 328.468H94.525Z" fill="#9D9CB5"/>
<path d="M94.0961 335.38L93.7975 340.25H50.3439L50.0398 335.38H94.0961Z" fill="#9D9CB5"/>
<path d="M43.9857 270.425C63.8094 284.77 72.0842 307.205 72.0842 307.205C72.0842 307.205 48.1937 306.385 28.3645 292.04C8.53538 277.695 0.276855 255.265 0.276855 255.265C0.276855 255.265 24.1565 256.079 43.9857 270.425Z" fill="#6C63FF"/>
<path d="M0.26062 255.265C0.26062 255.265 25.0633 269.029 33.0178 280.426C40.9723 291.823 72.0843 307.205 72.0843 307.205" stroke="#535461" stroke-width="2" stroke-miterlimit="10"/>
<path d="M56.7834 241.528C67.5722 249.33 72.0842 261.542 72.0842 261.542C72.0842 261.542 59.0802 261.096 48.286 253.294C37.4918 245.492 32.9906 233.275 32.9906 233.275C32.9906 233.275 45.9892 233.72 56.7834 241.528Z" fill="#6C63FF"/>
<path d="M32.9906 233.275C32.9906 233.275 46.4888 240.768 50.8162 246.968C55.1436 253.169 72.0842 261.542 72.0842 261.542" stroke="#535461" stroke-width="2" stroke-miterlimit="10"/>
<path d="M87.7488 260.923C75.3529 274.546 72.7303 292.35 72.7303 292.35C72.7303 292.35 90.2085 288.06 102.594 274.432C114.979 260.803 117.612 243.005 117.612 243.005C117.612 243.005 100.145 247.3 87.7488 260.923Z" fill="#6C63FF"/>
<path d="M117.623 243.01C117.623 243.01 101.475 256.975 97.3702 266.597C93.2654 276.218 72.7303 292.35 72.7303 292.35" stroke="#535461" stroke-width="2" stroke-miterlimit="10"/>
<path d="M542.788 256.128C542.788 256.128 533.823 211.529 537.255 205.98C537.255 205.98 537.38 200.822 537.173 194.246C537.173 193.997 537.173 193.747 537.173 193.492C537.777 193.894 538.406 194.257 539.057 194.578C542.219 196.202 545.849 196.671 549.319 195.902L546.605 192.878C545.953 192.156 545.274 191.374 545.133 190.418C544.992 189.463 545.383 188.61 545.72 187.758C548.299 181.242 548.434 173.049 543.466 168.075C539.269 163.895 538.248 158.497 533.693 154.68C530.365 151.884 528.535 147.785 526.808 143.821C525.347 140.471 523.876 137.094 523.04 133.543C522.388 130.768 522.128 127.896 521.232 125.186C520.336 122.477 518.658 119.844 516.036 118.633C515.102 118.204 514.065 117.96 513.212 117.389C512.094 116.635 511.42 115.408 510.611 114.333C506.501 108.903 492.737 112.101 486.221 114.305C484.45 114.861 482.81 115.769 481.4 116.977L481.459 116.879C481.508 116.798 481.568 116.716 481.622 116.635C480.909 117.211 480.293 117.899 479.798 118.671C478.848 120.175 478.451 121.929 477.659 123.558C476.703 125.485 471.387 130.866 473.673 133.032C473.834 133.178 474.017 133.295 474.216 133.38C475.074 133.737 476.019 133.831 476.931 133.651L476.833 133.885C476.053 135.796 475.652 137.842 475.655 139.906C475.655 148.827 483.012 156.06 492.096 156.06C493.804 156.061 495.502 155.799 497.129 155.283C497.167 155.489 497.2 155.696 497.238 155.902C497.238 155.983 497.265 156.065 497.276 156.146L496.988 156.548C496.974 156.523 496.958 156.5 496.939 156.478L488.415 168.39C487.112 169.308 479.608 174.738 479.184 178.81C478.739 183.268 478.294 188.485 478.294 188.485L478.234 189.604C477.862 189.915 477.426 190.142 476.957 190.269C476.489 190.395 475.998 190.418 475.519 190.337C472.859 189.903 472.859 200.11 472.859 200.11C472.859 200.11 471.089 201.739 469.873 200.328C468.656 198.916 465.442 203.699 465.442 203.699L445.298 204.568L444.836 204.595L443.75 201.234C443.634 200.88 443.382 200.586 443.049 200.416C442.717 200.246 442.331 200.214 441.975 200.328C441.891 200.355 441.809 200.39 441.731 200.431L441.655 200.474L441.513 200.572L441.443 200.637C441.404 200.672 441.368 200.711 441.334 200.751L441.269 200.827L441.236 200.86C441.111 201.033 441.028 201.233 440.994 201.445C440.96 201.656 440.976 201.872 441.041 202.076L441.975 204.959C438.087 205.741 434.113 207.945 437.354 214.016L420.924 210.981L426.24 215.444L453.681 221.107C453.317 221.758 453.556 222.703 454.691 224.034C459.578 229.773 468.483 231.331 472.066 231.733C473.013 233.85 474.195 235.853 475.59 237.705L475.281 243.423C475.281 243.423 466.208 287.001 464.546 289.211C465.385 288.261 466.152 287.25 466.843 286.187C464.209 295.14 460.528 307.395 459.562 309.23C458.009 312.162 456.57 324.026 458.34 324.786C458.883 325.02 460.436 324.906 462.651 324.738V325.72L462.553 362.962C462.553 362.962 462.999 385.805 461.777 387.982C460.555 390.16 460.229 394.726 460.229 394.726C460.229 394.726 455.343 403.734 451.471 407.355C451.445 407.384 451.416 407.409 451.385 407.431L451.265 406.584C451.265 406.584 446.612 412.459 436.317 412.128C436.317 412.128 430.122 416.157 439.309 416.374C448.496 416.591 460.229 416.048 460.229 416.048C460.229 416.048 468.423 403.56 475.286 405.189V414.653H477.387V405.037C478.362 404.395 479.196 403.563 479.839 402.589C480.482 401.616 480.921 400.522 481.128 399.374C481.308 398.19 481.176 396.981 480.746 395.864C480.316 394.747 479.601 393.761 478.674 393.005C478.257 392.628 477.923 392.169 477.692 391.657C477.462 391.145 477.339 390.591 477.333 390.029L477.257 390.094C477.257 389.904 477.208 389.709 477.186 389.508C476.584 384.621 475.829 374.538 478.495 367.078C482.149 356.849 483.257 342.601 480.596 334.12C479.738 331.409 479.033 328.652 478.484 325.862C478.419 325.509 478.359 325.172 478.305 324.857C480.123 325.103 481.924 325.466 483.696 325.943C489.859 327.642 503.341 327.957 514.852 327.865C514.879 328.18 514.912 328.511 514.95 328.842C515.155 331.145 515.584 333.421 516.231 335.64C517.675 339.984 518.338 359.134 518.338 359.134C518.338 359.134 520.2 374.881 519.185 381.288C518.642 384.849 518.099 388.428 517.789 392.022V392.093C517.789 392.093 514.738 400.78 512.506 405.498C512.452 405.618 512.392 405.737 512.338 405.851C511.743 405.906 511.157 406.035 510.595 406.237C510.595 406.237 507.603 412.209 504.622 413.198C501.642 414.186 502.63 417.438 509.379 416.244C516.128 415.049 526.319 414.072 526.319 414.072L526.759 407.98L528.833 405.384L528.29 411.46L530.5 411.026L530.207 403.636L533.601 399.39C533.601 399.39 537.7 395.741 531.608 388.563V388.721C531.543 388.618 531.483 388.509 531.412 388.406V388.373C530.402 386.809 529.599 383.894 531.07 378.719C533.731 369.369 535.278 360.883 535.278 360.883C535.278 360.883 541.218 338.149 534.078 327.393H534.393C533.662 325.879 533.144 324.271 532.857 322.615C532.821 322.419 532.788 322.218 532.759 322.012C538.042 321.708 543.227 320.752 547.457 318.689C547.441 318.667 544.894 264.718 542.788 256.128ZM475.715 218.501V218.609L474.629 218.664L475.715 218.501ZM471.99 219.016C471.812 219.056 471.644 219.136 471.501 219.25C471.035 219.911 470.741 220.678 470.649 221.482L468.955 221.101C468.955 221.101 467.766 220.846 466.056 220.559L465.246 219.744C467.473 219.559 469.786 219.288 471.99 219.016Z" fill="url(#paint1_linear)"/>
<path d="M528.041 403.712L527.395 411.406L529.561 410.972L529.235 402.626L528.041 403.712Z" fill="#1D2366"/>
<path d="M478.614 367.181C476.003 374.62 476.741 384.659 477.328 389.535C477.545 391.338 477.746 392.435 477.746 392.435C477.746 392.435 473.842 401.328 473.516 401.665C473.19 402.002 462.027 408.816 462.027 408.816L454.224 413.371C454.224 413.371 446.308 409.902 450.103 408.707C450.879 408.396 451.577 407.92 452.15 407.312C455.951 403.701 460.724 394.726 460.724 394.726C460.724 394.726 461.049 390.17 462.244 388.004C463.438 385.838 463.004 363.071 463.004 363.071L463.096 325.959V321.121L477.947 321.23C478.04 322.872 478.254 324.506 478.587 326.117C479.12 328.897 479.811 331.646 480.656 334.348C483.273 342.813 482.187 356.99 478.614 367.181Z" fill="#FFB0B1"/>
<path opacity="0.1" d="M477.746 392.435C477.746 392.435 473.842 401.328 473.516 401.665C473.19 402.002 462.027 408.816 462.027 408.816L454.224 413.371C454.224 413.371 446.308 409.902 450.103 408.707C450.879 408.396 451.577 407.92 452.15 407.312L452.487 409.685L455.088 409.576L477.349 389.546C477.545 391.338 477.746 392.435 477.746 392.435Z" fill="black"/>
<path d="M477.474 390.051L455.088 410.217L452.487 410.325L451.944 406.525C451.944 406.525 447.394 412.378 437.284 412.052C437.284 412.052 431.213 416.065 440.21 416.282C449.207 416.499 460.696 415.956 460.696 415.956C460.696 415.956 468.721 403.468 475.438 405.097V414.528H477.501V405.01C478.461 404.364 479.279 403.531 479.908 402.56C480.537 401.59 480.963 400.502 481.161 399.363C481.339 398.189 481.213 396.989 480.794 395.879C480.374 394.768 479.676 393.784 478.766 393.021C478.36 392.64 478.036 392.18 477.814 391.669C477.591 391.159 477.476 390.608 477.474 390.051Z" fill="#1D2366"/>
<path d="M530.104 378.779C528.66 383.937 529.447 386.842 530.435 388.4V388.433C531.703 390.357 532.584 392.509 533.03 394.769L533.117 395.258L522.931 410.108L517.404 412.28C517.404 412.28 508.516 409.245 510.139 408.376C510.546 408.164 511.181 407.035 511.909 405.477C514.081 400.78 517.078 392.114 517.078 392.114V392.044C517.393 388.466 517.893 384.898 518.446 381.347C519.44 374.957 517.616 359.27 517.616 359.27C517.616 359.27 516.964 340.196 515.552 335.858C514.915 333.652 514.491 331.39 514.287 329.103C513.994 326.388 513.929 324.151 513.929 324.151C513.929 324.151 519.782 316.007 530.511 324.803C531.369 325.504 532.124 326.323 532.754 327.235C540.165 337.78 534.198 361.008 534.198 361.008C534.198 361.008 532.705 369.456 530.104 378.779Z" fill="#FFB0B1"/>
<path opacity="0.1" d="M533.134 395.258L522.948 410.108L517.42 412.28C517.42 412.28 508.532 409.245 510.155 408.376C510.563 408.164 511.198 407.035 511.925 405.477C515.688 405.444 517.637 409.028 517.637 409.028L522.405 408.268C522.405 408.268 528.692 395.91 530.104 395.155C531.516 394.4 530.321 389.513 530.321 389.513V388.27C530.359 388.314 530.392 388.362 530.435 388.406V388.438C531.703 390.362 532.584 392.515 533.031 394.775L533.134 395.258Z" fill="black"/>
<path d="M517.963 409.348C517.963 409.348 515.248 404.364 510.047 406.204C510.047 406.204 507.12 412.177 504.193 413.143C501.267 414.11 502.244 417.368 508.857 416.179C515.471 414.99 525.44 414.007 525.44 414.007L525.874 407.931L532.596 399.368C532.596 399.368 536.603 395.736 530.641 388.585V389.828C530.641 389.828 531.836 394.715 530.424 395.47C529.012 396.225 522.747 408.588 522.747 408.588L517.963 409.348Z" fill="#1D2366"/>
<path opacity="0.1" d="M477.963 321.219C478.056 322.862 478.271 324.495 478.604 326.106C472.49 325.21 466.816 325.655 463.096 325.948V321.111L477.963 321.219Z" fill="black"/>
<path opacity="0.1" d="M533.356 328.587C533.356 328.587 524.669 329.011 514.309 329.098C514.016 326.383 513.951 324.146 513.951 324.146C513.951 324.146 519.804 316.001 530.533 324.797C531.391 325.499 532.146 326.318 532.775 327.23C532.944 327.693 533.138 328.146 533.356 328.587Z" fill="black"/>
<path d="M533.356 327.61C533.356 327.61 495.305 329.451 483.707 326.198C472.11 322.946 460.615 325.764 458.883 325.009C457.151 324.254 458.557 312.434 460.077 309.507C461.598 306.581 469.938 276.984 469.938 276.984L477.963 235.143L486.417 232.813L487.014 232.645L501.745 228.584L512.539 225.603C512.539 225.603 534.002 309.399 532.162 315.578C531.493 317.944 531.385 320.433 531.847 322.848C532.128 324.497 532.636 326.1 533.356 327.61Z" fill="#1D2366"/>
<path d="M449.989 206.528C449.989 206.528 442.388 214.673 448.143 219.212C453.898 223.751 457.683 219.646 457.683 219.646L449.989 206.528Z" fill="#C7DAF5"/>
<path opacity="0.1" d="M449.989 206.528C449.989 206.528 442.388 214.673 448.143 219.212C453.898 223.751 457.683 219.646 457.683 219.646L449.989 206.528Z" fill="black"/>
<path d="M511.404 152.981C511.404 152.981 510.514 153.828 509.172 155.077C507.261 156.863 504.432 159.475 501.924 161.663C498.449 164.687 495.582 166.908 496.608 165.013C497.634 163.118 497.439 159.817 496.929 156.727C496.891 156.521 496.858 156.315 496.82 156.114C496.397 153.845 495.837 151.604 495.142 149.403C495.142 149.403 500.756 142.149 503.862 139.287C505.019 138.201 505.828 137.756 505.877 138.511C505.931 139.526 506.691 141.769 507.636 144.147C507.663 144.223 507.69 144.293 507.723 144.369C508.353 145.998 509.064 147.671 509.688 149.115C510.644 151.33 511.404 152.981 511.404 152.981Z" fill="#FFB0B1"/>
<path opacity="0.1" d="M507.723 144.369C507.195 147.207 505.915 149.851 504.016 152.025C502.117 154.199 499.67 155.823 496.929 156.727C496.497 154.249 495.9 151.802 495.142 149.403C495.142 149.403 505.714 135.747 505.877 138.511C505.915 139.559 506.74 141.883 507.723 144.369Z" fill="black"/>
<path opacity="0.1" d="M495.875 160.376L497.244 158.449C497.244 158.449 498.15 163.976 501.484 161.538C504.818 159.1 504.981 179.885 504.981 179.885L501.403 233.383L475.547 231.836L476.28 205.985L479.206 192.954L486.444 174.01L490.75 167.75L495.875 160.376Z" fill="black"/>
<path d="M504.981 180.216L501.723 228.589L501.381 233.715L486.965 232.851L486.422 232.819L475.563 232.167L476.296 206.311L479.222 193.28L486.46 174.336L490.766 168.075L495.892 160.675L497.26 158.753C497.26 158.753 498.167 164.28 501.5 161.842L501.571 161.793C504.829 159.73 504.981 180.216 504.981 180.216Z" fill="#1D2366"/>
<path d="M479.586 188.752C479.586 188.752 478.289 191.466 475.682 191.027C473.076 190.587 473.081 200.8 473.081 200.8C473.081 200.8 471.349 202.429 470.155 201.017C468.96 199.605 465.811 204.378 465.811 204.378L446.08 205.247C446.08 205.247 454.859 209.259 453.138 221.4C453.138 221.4 482.947 219.554 483.924 216.736C484.902 213.918 479.586 188.752 479.586 188.752Z" fill="white"/>
<path opacity="0.03" d="M479.586 188.752C479.586 188.752 478.289 191.466 475.682 191.027C473.076 190.587 473.081 200.8 473.081 200.8C473.081 200.8 471.349 202.429 470.155 201.017C468.96 199.605 465.811 204.378 465.811 204.378L446.08 205.247C446.08 205.247 454.859 209.259 453.138 221.4C453.138 221.4 482.947 219.554 483.924 216.736C484.902 213.918 479.586 188.752 479.586 188.752Z" fill="black"/>
<path d="M422.244 211.627L427.445 216.068L470.264 225.065L464.953 219.646L422.244 211.627Z" fill="white"/>
<path d="M495.957 162.086C495.245 163.172 493.209 168.732 491.51 173.586C490.093 177.632 488.909 181.188 488.909 181.188C488.909 181.188 486.145 199.182 484.734 202.434C483.322 205.687 484.087 218.37 484.087 218.37L478.826 249.694C478.826 249.694 476.442 265.847 472.761 275.496C469.129 284.992 465.084 289.445 464.959 289.586C466.588 287.381 475.465 243.977 475.465 243.977L478.397 189.235C478.397 189.235 478.826 184.033 479.26 179.586C479.695 175.139 488.491 169.069 488.491 169.069L496.972 157.01C497.824 158.15 497.254 160.137 495.957 162.086Z" fill="white"/>
<path d="M473.842 232.439C473.842 232.439 461.353 231.896 455.305 224.631C449.256 217.366 469.286 221.731 469.286 221.731L474.493 222.926L473.842 232.439Z" fill="#FFB0B1"/>
<path opacity="0.1" d="M532.162 315.583C531.493 317.949 531.385 320.438 531.847 322.853C518.224 323.82 503.651 320.139 503.651 320.139C500.936 322.636 493.785 326.318 493.785 326.318L489.886 277.994C487.394 271.478 486.417 237.342 486.417 237.342C486.417 237.342 486.639 235.555 486.96 232.878C486.96 232.813 486.96 232.743 486.987 232.678C487.959 225.201 489.886 211.165 490.831 209.27C492.134 206.664 486.824 199.73 486.824 199.73L489.24 179.125L489.533 176.638C494.626 174.363 498.53 167.098 498.53 167.098L501.527 161.848C504.785 159.757 504.954 180.243 504.954 180.243L501.696 228.616L512.49 225.635C512.49 225.635 534.002 309.404 532.162 315.583Z" fill="black"/>
<path d="M546.143 318.922C531.293 326.296 504.302 319.465 504.302 319.465C501.587 321.963 494.436 325.644 494.436 325.644L490.532 277.32C488.046 270.805 487.068 236.668 487.068 236.668C487.068 236.668 490.207 211.198 491.51 208.597C491.89 207.837 491.705 206.707 491.255 205.491C489.039 199.702 488.224 193.471 488.876 187.307L489.919 178.451L490.207 175.97C495.305 173.69 499.209 166.425 499.209 166.425L501.924 161.668L506.919 152.905L509.287 148.757L509.688 149.12L512.756 151.9C512.756 151.9 514.059 152.986 516.014 154.615C520.265 158.199 527.612 164.508 531.402 168.369C534.735 171.768 535.789 184.989 536.093 194.941C536.294 201.495 536.174 206.631 536.174 206.631C532.813 212.164 541.604 256.584 541.604 256.584C543.651 265.169 546.143 318.922 546.143 318.922Z" fill="white"/>
<path opacity="0.03" d="M517.637 166.316C517.637 166.316 507.446 185.716 508.63 193.09C509.813 200.463 513.18 208.809 511.556 210.758C510.998 211.496 510.277 212.096 509.449 212.509C508.621 212.923 507.709 213.139 506.783 213.142C505.155 213.25 500.811 216.285 500.811 216.611C500.811 216.937 496.798 216.937 493.209 218.457C489.62 219.978 484.321 220.841 484.321 220.841C484.321 220.841 474.005 220.515 473.044 221.492C472.082 222.47 471.094 228.318 473.152 232.982C475.21 237.646 477.496 241.126 479.222 241.761C480.949 242.397 491.906 238.726 500.795 237.857C509.683 236.989 519.331 229.946 519.331 229.946C519.331 229.946 529.957 226.146 531.82 219.755C533.682 213.364 529.545 178.24 529.545 178.24C529.545 178.24 526.417 161.869 517.637 166.316Z" fill="black"/>
<path opacity="0.03" d="M516.334 164.687C516.334 164.687 506.143 184.093 507.337 191.461C508.532 198.829 511.887 207.18 510.258 209.135C509.703 209.874 508.983 210.474 508.155 210.888C507.328 211.301 506.416 211.517 505.491 211.518C503.862 211.627 499.518 214.662 499.518 214.988C499.518 215.313 495.506 215.313 491.917 216.828C488.328 218.343 483.029 219.212 483.029 219.212C483.029 219.212 472.712 218.886 471.757 219.864C470.801 220.841 469.802 226.694 471.865 231.353C473.928 236.011 476.209 239.497 477.936 240.132C479.662 240.768 490.619 237.097 499.508 236.234C508.396 235.371 518.045 228.318 518.045 228.318C518.045 228.318 528.665 224.517 530.506 218.131C532.346 211.746 528.231 176.611 528.231 176.611C528.231 176.611 525.114 160.246 516.334 164.687Z" fill="black"/>
<path d="M517.317 165.339C517.317 165.339 507.126 184.744 508.32 192.113C509.515 199.481 512.87 207.831 511.247 209.781C510.691 210.522 509.97 211.123 509.142 211.538C508.314 211.953 507.4 212.169 506.474 212.17C504.845 212.278 500.501 215.313 500.501 215.634C500.501 215.954 496.494 215.96 492.9 217.48C489.305 219 484.011 219.864 484.011 219.864C484.011 219.864 473.695 219.538 472.734 220.515C471.773 221.492 470.785 227.346 472.843 232.004C474.9 236.663 477.186 240.149 478.913 240.784C480.64 241.419 491.597 237.749 500.485 236.88C509.373 236.011 519.022 228.969 519.022 228.969C519.022 228.969 529.648 225.168 531.51 218.778C533.373 212.387 529.262 177.262 529.262 177.262C529.262 177.262 526.091 160.919 517.317 165.339Z" fill="white"/>
<path opacity="0.1" d="M517.094 217.388C517.094 217.388 508.95 215.759 511.784 218.474C514.618 221.188 514.602 223.567 518.072 223.458C521.541 223.349 517.094 217.388 517.094 217.388Z" fill="black"/>
<path opacity="0.1" d="M530.859 275.8C530.859 275.8 527.177 278.292 534.22 284.037C541.262 289.781 530.859 275.8 530.859 275.8Z" fill="black"/>
<path opacity="0.1" d="M523.833 296.286C523.833 296.612 522.53 308.231 527.405 311.136C532.281 314.041 523.833 296.286 523.833 296.286Z" fill="black"/>
<path d="M446.416 205.22C442.485 205.355 433.993 206.555 438.397 214.771C442.29 222.041 448.833 217.181 452.514 213.495C451.616 210.057 449.433 207.095 446.416 205.22Z" fill="#FFB0B1"/>
<path d="M452.563 213.429L452.726 213.261L452.563 213.429Z" fill="#FFB0B1"/>
<path opacity="0.1" d="M516.014 154.946C511.844 157.797 508.347 160.202 507.663 160.702C505.795 162.086 502.233 170.215 499.937 174.363C498.107 177.702 492.161 178.56 489.919 178.772L490.207 176.29C495.305 174.01 499.209 166.745 499.209 166.745L509.287 149.077L512.756 152.232C512.756 152.232 514.059 153.318 516.014 154.946Z" fill="black"/>
<path d="M516.014 154.621C511.844 157.471 508.347 159.877 507.663 160.382C505.795 161.761 502.233 169.889 499.937 174.037C498.107 177.376 492.161 178.234 489.919 178.446L490.207 175.965C495.305 173.684 499.209 166.419 499.209 166.419L509.287 148.751L512.756 151.895C512.756 151.895 514.059 152.97 516.014 154.621Z" fill="#DCE7FF"/>
<path d="M507.989 140.786C507.991 144.045 507.003 147.228 505.154 149.913C502.972 153.087 499.724 155.374 495.999 156.359C492.275 157.343 488.321 156.959 484.855 155.278C481.389 153.596 478.64 150.728 477.108 147.193C475.576 143.659 475.362 139.692 476.505 136.013C477.647 132.334 480.07 129.186 483.335 127.141C486.6 125.096 490.489 124.289 494.298 124.866C498.107 125.444 501.583 127.367 504.095 130.288C506.607 133.209 507.988 136.933 507.989 140.786Z" fill="#FFB0B1"/>
<path opacity="0.1" d="M536.093 194.947C533.888 193.59 532.092 191.661 530.897 189.365C529.99 187.573 529.387 185.505 527.84 184.234C526.444 183.094 524.582 182.817 522.844 182.307C517.132 180.618 512.343 175.405 512.164 169.454C512.077 166.653 512.951 163.856 512.555 161.082C512.33 159.512 511.705 158.025 510.742 156.765C510.263 156.163 509.738 155.598 509.172 155.077C508.412 154.36 507.614 153.665 506.919 152.905C506.481 152.434 506.099 151.915 505.779 151.357C505.521 150.901 505.311 150.419 505.154 149.919C504.069 146.596 505.057 142.654 503.862 139.293L503.797 139.108C503.346 137.914 502.429 136.719 501.153 136.627C499.877 136.534 498.785 137.593 497.569 138.066C495.023 139.054 492.275 137.371 490.152 135.655C488.029 133.939 485.635 131.979 482.936 132.359C481.15 132.614 479.738 133.83 478.093 134.46C477.722 134.604 477.338 134.715 476.947 134.791C478.34 131.319 480.898 128.44 484.182 126.649C487.466 124.858 491.272 124.267 494.945 124.977C498.618 125.687 501.929 127.654 504.309 130.54C506.69 133.425 507.991 137.05 507.989 140.791C507.991 141.921 507.872 143.048 507.636 144.152C507.663 144.228 507.69 144.299 507.723 144.375C508.353 146.004 509.064 147.676 509.688 149.12L512.756 151.9C512.756 151.9 514.059 152.986 516.014 154.615C520.265 158.199 527.612 164.508 531.401 168.369C534.735 171.778 535.778 184.994 536.093 194.947Z" fill="black"/>
<path d="M477.903 124.54C478.68 122.96 479.065 121.19 479.994 119.692C481.356 117.52 483.735 116.13 486.178 115.288C492.558 113.089 506.04 109.896 510.068 115.288C510.861 116.374 511.518 117.579 512.615 118.329C513.451 118.899 514.461 119.143 515.379 119.572C517.947 120.778 519.587 123.405 520.461 126.088C521.335 128.77 521.596 131.648 522.236 134.411C523.056 137.957 524.495 141.318 525.928 144.657C527.617 148.599 529.409 152.688 532.667 155.473C537.114 159.274 538.096 164.655 542.223 168.825C547.11 173.777 546.952 181.948 544.433 188.437C544.102 189.289 543.727 190.18 543.857 191.086C543.988 191.993 544.661 192.818 545.296 193.541L547.967 196.554C541.647 198.08 534.496 194.778 531.554 188.985C530.647 187.193 530.044 185.13 528.491 183.854C527.101 182.714 525.233 182.442 523.501 181.932C517.789 180.238 513 175.02 512.821 169.069C512.734 166.273 513.609 163.476 513.212 160.707C512.992 159.126 512.365 157.63 511.393 156.364C509.9 154.414 507.647 153.106 506.431 150.934C504.373 147.301 505.936 142.583 504.454 138.685C503.998 137.49 503.086 136.296 501.81 136.203C500.534 136.111 499.443 137.17 498.221 137.642C495.68 138.63 492.932 136.953 490.809 135.231C488.686 133.51 486.292 131.555 483.588 131.941C481.802 132.191 480.395 133.407 478.75 134.042C477.534 134.509 475.069 134.927 474.005 133.901C471.757 131.832 476.964 126.473 477.903 124.54Z" fill="#591D4B"/>
<path opacity="0.1" d="M533.063 187.193C532.151 185.401 531.554 183.338 530.001 182.068C528.611 180.927 526.743 180.65 525.005 180.14C519.299 178.451 514.51 173.234 514.325 167.283C514.238 164.486 515.113 161.685 514.722 158.916C514.494 157.345 513.868 155.859 512.903 154.599C511.404 152.65 509.151 151.341 507.94 149.169C505.882 145.542 507.446 140.824 505.958 136.92C505.508 135.731 504.59 134.536 503.319 134.439C502.049 134.341 500.947 135.41 499.73 135.883C497.189 136.871 494.436 135.188 492.319 133.472C490.201 131.756 487.796 129.796 485.097 130.176C483.311 130.431 481.899 131.648 480.26 132.278C479.043 132.745 476.573 133.168 475.509 132.142C473.272 129.97 478.479 124.622 479.413 122.7C480.189 121.114 480.574 119.35 481.508 117.851C481.557 117.769 481.612 117.688 481.666 117.607C480.967 118.185 480.364 118.871 479.879 119.637C478.951 121.136 478.566 122.895 477.789 124.486C476.85 126.408 471.643 131.773 473.885 133.928C474.971 134.96 477.414 134.536 478.631 134.069C480.26 133.434 481.682 132.218 483.468 131.968C486.183 131.583 488.572 133.543 490.69 135.258C492.808 136.974 495.577 138.657 498.107 137.669C499.323 137.197 500.387 136.133 501.69 136.23C502.994 136.328 503.862 137.517 504.335 138.712C505.817 142.61 504.253 147.329 506.311 150.961C507.527 153.095 509.781 154.431 511.274 156.391C512.245 157.657 512.872 159.154 513.093 160.734C513.489 163.504 512.615 166.3 512.702 169.096C512.881 175.069 517.67 180.265 523.382 181.959C525.103 182.469 526.982 182.741 528.372 183.881C529.93 185.157 530.544 187.22 531.434 189.012C534.377 194.806 541.528 198.107 547.848 196.581L546.588 195.159C541.11 195.24 535.566 192.123 533.063 187.193Z" fill="black"/>
<path opacity="0.1" d="M495.631 162.412C494.92 163.498 492.883 169.058 491.184 173.912C489.593 173.293 488.149 169.346 488.149 169.346L496.63 157.281C497.499 158.476 496.929 160.458 495.631 162.412Z" fill="black"/>
<path d="M495.957 162.086C495.245 163.172 493.209 168.732 491.51 173.586C489.919 172.973 488.475 169.02 488.475 169.02L496.956 156.961C497.824 158.15 497.254 160.137 495.957 162.086Z" fill="#DCE7FF"/>
<path d="M446.644 217.556L441.942 202.727C441.887 202.554 441.866 202.371 441.881 202.189C441.896 202.008 441.947 201.831 442.031 201.669C442.115 201.507 442.23 201.363 442.369 201.246C442.509 201.128 442.67 201.04 442.844 200.985C443.194 200.875 443.573 200.909 443.898 201.078C444.223 201.246 444.469 201.537 444.581 201.886L449.283 216.698L448.816 219.798L446.644 217.556Z" fill="#BE8B87"/>
<path opacity="0.1" d="M442.388 201.424C442.738 201.313 443.119 201.346 443.445 201.515C443.772 201.684 444.018 201.975 444.131 202.326L448.833 217.138L448.48 219.462L448.822 219.82L449.289 216.72L444.559 201.908C444.447 201.559 444.202 201.268 443.876 201.099C443.551 200.93 443.172 200.897 442.822 201.006C442.528 201.102 442.273 201.293 442.1 201.549C442.192 201.5 442.288 201.458 442.388 201.424Z" fill="white"/>
<path d="M446.644 217.556L449.283 216.72L448.898 219.261L448.816 219.82L448.045 219.017L446.644 217.556Z" fill="#EFC8C4"/>
<path d="M448.045 219.017C448.091 218.958 448.149 218.91 448.214 218.875C448.252 218.851 448.296 218.838 448.341 218.838C448.387 218.838 448.431 218.851 448.469 218.875C448.506 218.92 448.537 218.969 448.561 219.022C448.597 219.082 448.646 219.133 448.704 219.171C448.762 219.21 448.829 219.235 448.898 219.245L448.816 219.788L448.045 219.017Z" fill="#727A9C"/>
<path d="M441.915 207.994C441.915 207.994 451.347 207.94 449.126 211.952C446.905 215.965 443.436 216.448 443.436 216.448L441.915 207.994Z" fill="#FFB0B1"/>
<path d="M383.258 27.9194H382.851C366.649 27.9194 352.32 36.4928 344.078 49.1439C335.836 36.4928 321.507 27.9194 305.305 27.9194H304.898C292.738 28.0352 281.116 32.9451 272.556 41.5819C263.997 50.2187 259.192 61.8846 259.185 74.0444C259.185 89.1443 265.799 110.57 278.694 128.2C303.263 161.793 344.078 191.184 344.078 191.184C344.078 191.184 384.893 161.799 409.457 128.2C422.358 110.57 428.965 89.1443 428.965 74.0444C428.959 61.8855 424.154 50.2204 415.596 41.5838C407.038 32.9471 395.417 28.0366 383.258 27.9194ZM377.432 130.784C375.587 130.777 373.787 130.213 372.269 129.164C370.75 128.116 369.585 126.633 368.924 124.909H359.238C358.6 124.906 357.979 124.702 357.462 124.329C356.945 123.955 356.558 123.429 356.354 122.825L353.379 113.86L343.964 146.758C343.781 147.392 343.397 147.949 342.87 148.345C342.343 148.742 341.702 148.956 341.043 148.957H340.853C340.165 148.924 339.509 148.656 338.995 148.197C338.481 147.739 338.14 147.118 338.029 146.438L328.327 88.0801L321.235 122.613C321.073 123.269 320.695 123.851 320.163 124.268C319.63 124.684 318.974 124.91 318.298 124.909H304.653C304.244 124.927 303.836 124.861 303.453 124.717C303.07 124.572 302.72 124.351 302.425 124.068C302.129 123.785 301.894 123.445 301.733 123.068C301.572 122.692 301.49 122.286 301.49 121.877C301.49 121.468 301.572 121.062 301.733 120.686C301.894 120.309 302.129 119.969 302.425 119.686C302.72 119.403 303.07 119.182 303.453 119.037C303.836 118.893 304.244 118.827 304.653 118.845H315.909L325.954 72.4155C326.119 71.729 326.517 71.1212 327.08 70.6958C327.644 70.2705 328.337 70.0541 329.043 70.0836C329.748 70.1131 330.421 70.3866 330.947 70.8575C331.473 71.3285 331.819 71.9674 331.926 72.6652L341.836 132.196L350.273 102.762C350.449 102.142 350.82 101.595 351.332 101.204C351.844 100.813 352.469 100.597 353.113 100.59H353.173C353.811 100.59 354.433 100.792 354.949 101.166C355.466 101.541 355.851 102.069 356.05 102.675L361.431 118.861H368.805C369.329 117.268 370.283 115.851 371.562 114.766C372.84 113.682 374.394 112.971 376.051 112.714C377.708 112.456 379.404 112.662 380.951 113.307C382.499 113.952 383.838 115.013 384.821 116.371C385.804 117.73 386.393 119.333 386.522 121.005C386.651 122.677 386.316 124.352 385.553 125.845C384.79 127.338 383.63 128.592 382.2 129.467C380.77 130.343 379.126 130.806 377.449 130.806L377.432 130.784Z" fill="#6C63FF"/>
</g>
<defs>
<linearGradient id="paint0_linear" x1="193.475" y1="420.729" x2="193.475" y2="86.6195" gradientUnits="userSpaceOnUse">
<stop stop-color="#808080" stop-opacity="0.25"/>
<stop offset="0.54" stop-color="#808080" stop-opacity="0.12"/>
<stop offset="1" stop-color="#808080" stop-opacity="0.1"/>
</linearGradient>
<linearGradient id="paint1_linear" x1="121199" y1="252090" x2="121199" y2="80588.7" gradientUnits="userSpaceOnUse">
<stop stop-color="#808080" stop-opacity="0.25"/>
<stop offset="0.54" stop-color="#808080" stop-opacity="0.12"/>
<stop offset="1" stop-color="#808080" stop-opacity="0.1"/>
</linearGradient>
<clipPath id="clip0">
<rect width="600" height="425.002" fill="white"/>
</clipPath>
</defs>
</svg>
