<svg width="50" height="50" viewBox="0 0 50 50" fill="none" xmlns="http://www.w3.org/2000/svg">
<path d="M23.3426 37.5947C23.5603 37.8124 23.8186 37.985 24.103 38.1028C24.3874 38.2206 24.6921 38.2812 24.9999 38.2812C25.3077 38.2812 25.6125 38.2206 25.8969 38.1028C26.1812 37.985 26.4396 37.8124 26.6573 37.5947L35.496 28.756C35.9356 28.3164 36.1825 27.7203 36.1825 27.0987C36.1825 26.4771 35.9356 25.8809 35.496 25.4414C35.0565 25.0019 34.4604 24.7549 33.8388 24.7549C33.2172 24.7549 32.621 25.0019 32.1815 25.4414L27.3437 30.2792V4.6875C27.3437 4.0659 27.0968 3.46976 26.6572 3.03022C26.2177 2.59068 25.6215 2.34375 24.9999 2.34375C24.3783 2.34375 23.7822 2.59068 23.3427 3.03022C22.9031 3.46976 22.6562 4.0659 22.6562 4.6875V30.2792L17.8184 25.4414C17.3789 25.0019 16.7827 24.7549 16.1611 24.7549C15.5395 24.7549 14.9434 25.0019 14.5038 25.4414C14.0643 25.8809 13.8174 26.4771 13.8174 27.0987C13.8174 27.7203 14.0643 28.3164 14.5038 28.756L23.3426 37.5947Z" fill="black"/>
<path d="M45.3125 22.6562C44.6909 22.6563 44.0948 22.9032 43.6552 23.3427C43.2157 23.7823 42.9688 24.3784 42.9688 25V42.9688H7.03125V25C7.03125 24.3784 6.78432 23.7823 6.34478 23.3427C5.90524 22.9032 5.3091 22.6563 4.6875 22.6562C4.0659 22.6563 3.46976 22.9032 3.03022 23.3427C2.59068 23.7823 2.34375 24.3784 2.34375 25V43.75C2.34375 44.786 2.7553 45.7796 3.48786 46.5121C4.22043 47.2447 5.214 47.6563 6.25 47.6563H43.75C44.786 47.6563 45.7796 47.2447 46.5121 46.5121C47.2447 45.7796 47.6562 44.786 47.6562 43.75V25C47.6562 24.3784 47.4093 23.7823 46.9698 23.3427C46.5302 22.9032 45.9341 22.6563 45.3125 22.6562Z" fill="black"/>
</svg>
